<svg xmlns="http://www.w3.org/2000/svg" width="365" height="247.51" viewBox="0 0 365 247.51">
  <g id="By_my_car-rafiki" data-name="By my car-rafiki" transform="translate(0 -107.05)">
    <g id="freepik--background-complete--inject-33" transform="translate(0 107.05)">
      <rect id="Retângulo_2" data-name="Retângulo 2" width="365" height="0.182" transform="translate(0 214.543)" fill="#ebebeb"/>
      <rect id="Retângulo_3" data-name="Retângulo 3" width="24.178" height="0.182" transform="translate(304.249 226.289)" fill="#ebebeb"/>
      <rect id="Retângulo_4" data-name="Retângulo 4" width="6.344" height="0.182" transform="translate(235.447 228.275)" fill="#ebebeb"/>
      <rect id="Retângulo_5" data-name="Retângulo 5" width="14.009" height="0.182" transform="translate(289.511 219.515)" fill="#ebebeb"/>
      <rect id="Retângulo_6" data-name="Retângulo 6" width="31.529" height="0.182" transform="translate(38.296 220.741)" fill="#ebebeb"/>
      <rect id="Retângulo_7" data-name="Retângulo 7" width="4.621" height="0.182" transform="translate(76.329 220.741)" fill="#ebebeb"/>
      <rect id="Retângulo_8" data-name="Retângulo 8" width="68.386" height="0.182" transform="translate(95.973 223.822)" fill="#ebebeb"/>
      <circle id="Elipse_1" data-name="Elipse 1" cx="32.171" cy="32.171" r="32.171" transform="translate(150.532 77.518) rotate(-9.22)" fill="#f0f0f0"/>
      <path id="Caminho_6" data-name="Caminho 6" d="M256.66,255.706c6.081-4.869,24.09-5.11,32.6,2.19s20.2,19.221,24.338,20.681,17.921-3.891,29.039-5.11,15.491,10.22,19.622,16.549,8.519,6.57,10.468,14.841,5.592,14.359,11.191,21.17,21.9,16.06,23.6,21.221H227.942L226,276.876C230.833,272.007,250.543,260.575,256.66,255.706Z" transform="translate(-61.02 -132.705)" fill="#ebebeb"/>
      <path id="Caminho_7" data-name="Caminho 7" d="M57.967,258.755c3.774-3.811,15.972-6.322,22.958-21.411s29.93-46.479,38.69-50.823,18.447-23.36,21.951-26.068,8.03,4.621,9.242,9c3.154,11.14,18.25,42.829,27.229,48.91s9.607,19.221,12.111,26.769S208,257.054,211.493,266.785s42.34,55.531,42.34,55.531H22C33.549,313.929,43.433,273.436,57.967,258.755Z" transform="translate(-5.94 -107.773)" fill="#f5f5f5"/>
      <path id="Caminho_8" data-name="Caminho 8" d="M171.056,173.889c0,3.745-1.132,21.09-5.03,25.309s-.46-5.19-7.045,0-9.49,15.892-20.535,19.63-10.052-5.679-4.7-11.038,11.68-14.761,16.717-17.52S171.056,162.37,171.056,173.889Z" transform="translate(-35.064 -110.748)" fill="#f0f0f0"/>
      <path id="Caminho_9" data-name="Caminho 9" d="M127.206,279.6c5.249-7.256-18.33,1.139-25.47-1.46s-1.621-6.161-12.008,2.92-28.382,17.849-18.652,20.929S117.439,293.067,127.206,279.6Z" transform="translate(-18.436 -138.917)" fill="#f0f0f0"/>
      <path id="Caminho_10" data-name="Caminho 10" d="M324.4,279.931c-4.03-4.818-8.636-13.87-14.6-15.454s-9.972-2.555-8.76,1.095S330.678,287.42,324.4,279.931Z" transform="translate(-81.222 -135.635)" fill="#f0f0f0"/>
      <path id="Caminho_11" data-name="Caminho 11" d="M410.45,312.972c-1.037-3.38-4.219-3.285-7.015-8.643s-6.935-14.476-13.753-14.841-17.608,2.314-8.512,9.125S414.056,324.769,410.45,312.972Z" transform="translate(-101.974 -142.762)" fill="#f0f0f0"/>
      <path id="Caminho_12" data-name="Caminho 12" d="M351.836,103.795h-138.7c-17.52,0,31.631-3.65,58.641-9.731s29.2-8.03,38.2-1.46,35.77-8.03,48.669.73S374.948,103.795,351.836,103.795Z" transform="translate(-56.551 -88.505)" fill="#fafafa"/>
      <path id="Caminho_13" data-name="Caminho 13" d="M117.848,137.737c17.3,0,50.319-1.409,37.077-7.242s-23.046,5.84-28.828.883-15.14-5.65-22.907-.883-5.46-2.65-14.826,0c-13.14,3.716-55.217,7.242-19.4,7.242Z" transform="translate(-14.808 -98.971)" fill="#fafafa"/>
      <path id="Caminho_14" data-name="Caminho 14" d="M323.433,224.655c13.213,0,38.42-1.08,28.309-5.526s-17.593,4.446-22,.672-11.563-4.314-17.52-.672-4.168-2.022-11.322,0c-10.008,2.832-42.15,5.526-14.812,5.526Z" transform="translate(-74.335 -123.108)" fill="#fafafa"/>
    </g>
    <g id="freepik--Shadow--inject-33" transform="translate(40.96 338.033)">
      <ellipse id="freepik--path--inject-33" cx="141.54" cy="8.264" rx="141.54" ry="8.264" transform="translate(0 0)" fill="#f5f5f5"/>
    </g>
    <g id="freepik--Car--inject-33" transform="translate(33.014 232.439)">
      <path id="Caminho_15" data-name="Caminho 15" d="M228.214,389.832c9.147,0,16.564-14.688,16.564-32.806s-7.417-32.806-16.564-32.806H207v65.612Z" transform="translate(-88.904 -277.536)" fill="#263238"/>
      <ellipse id="Elipse_2" data-name="Elipse 2" cx="16.564" cy="32.806" rx="16.564" ry="32.806" transform="translate(101.422 46.683)" fill="#263238"/>
      <path id="Caminho_16" data-name="Caminho 16" d="M394.57,389.832c9.147,0,16.556-14.688,16.556-32.806s-7.38-32.806-16.556-32.806H373.32v65.612Z" transform="translate(-133.811 -277.536)" fill="#263238"/>
      <ellipse id="Elipse_3" data-name="Elipse 3" cx="16.564" cy="32.806" rx="16.564" ry="32.806" transform="translate(222.865 46.683)" fill="#263238"/>
      <path id="Caminho_17" data-name="Caminho 17" d="M75.969,369.187l-11.344-2.8A13.534,13.534,0,0,1,55.7,359.23h0a13.571,13.571,0,0,0-3.146-4.125l-2.789-2.482A13.563,13.563,0,0,1,45.287,341.2l1.533-16.06a13.563,13.563,0,0,1,9.651-11.716l8.11-2.394,29.258-2.088Z" transform="translate(-45.225 -273.411)" fill="#ff5b69"/>
      <path id="Caminho_18" data-name="Caminho 18" d="M113.373,389.832c9.147,0,16.564-14.688,16.564-32.806s-7.417-32.806-16.564-32.806H92.13v65.612Z" transform="translate(-57.889 -277.536)" fill="#263238"/>
      <ellipse id="Elipse_4" data-name="Elipse 4" cx="16.564" cy="32.806" rx="16.564" ry="32.806" transform="translate(17.597 46.683)" fill="#263238"/>
      <ellipse id="Elipse_5" data-name="Elipse 5" cx="11.622" cy="25.93" rx="11.622" ry="25.93" transform="translate(22.539 53.56)" fill="#ff5b69"/>
      <path id="Caminho_19" data-name="Caminho 19" d="M254.6,356.046l28.6-63.919S240.4,260.27,186.107,260.27c-88,0-84.979,11.863-114.427,37.617l12.855,9.067c22.871,0,24.776,36.252,28.433,46.45a3.964,3.964,0,0,0,3.738,2.643H254.6" transform="translate(-52.368 -260.27)" fill="#ff5b69"/>
      <path id="Caminho_20" data-name="Caminho 20" d="M279.74,389.832c9.147,0,16.556-14.688,16.556-32.806s-7.41-32.806-16.556-32.806H258.49v65.612Z" transform="translate(-102.807 -277.536)" fill="#263238"/>
      <ellipse id="Elipse_6" data-name="Elipse 6" cx="16.564" cy="32.806" rx="16.564" ry="32.806" transform="translate(139.039 46.683)" fill="#263238"/>
      <ellipse id="Elipse_7" data-name="Elipse 7" cx="11.622" cy="25.93" rx="11.622" ry="25.93" transform="translate(143.982 53.56)" fill="#ff5b69"/>
      <path id="Caminho_21" data-name="Caminho 21" d="M281.6,362.543c-2.635-11.972-15.235-43.8-30.339-43.8L234.89,303.88h92.374c6.395,0,34.8,3.927,50.9,14.826,13,8.8,14.6,22.17,16.469,41.7.387,3.986-3.1,7.409-7.512,7.417-37.011,0-81.8.139-98.112.19A7.341,7.341,0,0,1,281.6,362.543Z" transform="translate(-96.435 -272.045)" fill="#ff5b69"/>
      <path id="Caminho_22" data-name="Caminho 22" d="M317.31,293.38H257.092a8.526,8.526,0,0,1-7.074-3.716c-6.7-9.928-18.564-19.987-27.258-24.754C283.642,264.91,317.31,293.38,317.31,293.38Z" transform="translate(-93.159 -261.523)" fill="#fff" opacity="0.8"/>
      <path id="Caminho_23" data-name="Caminho 23" d="M189.169,267.892c7.3,5.285,15.607,13.476,20.272,21.615a2.57,2.57,0,0,1-2.19,3.862H108.562c-10.468,0-6.993-26.076,47.691-28.032,5.154-.445,17.17-.46,23.813-.431A15.629,15.629,0,0,1,189.169,267.892Z" transform="translate(-61.058 -261.519)" fill="#fff" opacity="0.8"/>
      <path id="Caminho_24" data-name="Caminho 24" d="M312.4,372l31.631,2.387a1.956,1.956,0,0,1,1.81,1.956v2.19a1.956,1.956,0,0,1-1.956,1.956H312.274a1.964,1.964,0,0,1-1.964-1.956v-4.548A1.963,1.963,0,0,1,312.4,372Z" transform="translate(-116.798 -290.436)" fill="#263238"/>
      <path id="Caminho_25" data-name="Caminho 25" d="M447.1,372.584l-8.687,1.752a1.957,1.957,0,0,0-1.577,1.92v2.373a1.956,1.956,0,0,0,1.964,1.956H448a1.956,1.956,0,0,0,1.949-2.19l-.489-4.117a1.964,1.964,0,0,0-2.358-1.694Z" transform="translate(-150.961 -290.583)" fill="#263238"/>
      <path id="Caminho_26" data-name="Caminho 26" d="M332.494,320.786l-44.165-2.146s-.453,7.826,15.914,9.49A43.07,43.07,0,0,0,332.494,320.786Z" transform="translate(-110.863 -276.03)" fill="#fff" opacity="0.8"/>
      <path id="Caminho_27" data-name="Caminho 27" d="M47.16,329.705a13.446,13.446,0,0,1,.912-3.738l2.993-.088s.139,11.483-4.2,10.76a2.127,2.127,0,0,1-.358-.088Z" transform="translate(-45.572 -277.985)" opacity="0.3"/>
      <path id="Caminho_28" data-name="Caminho 28" d="M421.988,320.62a50.366,50.366,0,0,1,4.344,2.621,31.211,31.211,0,0,1,5.8,5.022,17.41,17.41,0,0,1-1.876.423c-9.8,1.686-16.929-7.366-16.929-7.366Z" transform="translate(-144.613 -276.564)" fill="#fff" opacity="0.8"/>
      <path id="Caminho_29" data-name="Caminho 29" d="M365.249,338.48H396.5a5.365,5.365,0,0,1,3.059.978l5.46,3.832a5.468,5.468,0,0,1,2.3,3.73l1.394,10.344a4.657,4.657,0,0,1-4.665,5.373H370.629a5.5,5.5,0,0,1-4.818-2.993l-6.242-12.169a4.92,4.92,0,0,1,.394-5.307l1.562-2.007A4.665,4.665,0,0,1,365.249,338.48Z" transform="translate(-129.937 -281.387)" fill="#263238"/>
      <path id="Caminho_30" data-name="Caminho 30" d="M141.239,373.05h61.116a1.46,1.46,0,0,1,1.46,1.584l-.314,3.555a1.46,1.46,0,0,1-1.46,1.329H140.918a1.46,1.46,0,0,1-1.46-1.584l.314-3.562A1.46,1.46,0,0,1,141.239,373.05Z" transform="translate(-70.667 -290.721)" opacity="0.1"/>
      <path id="Caminho_31" data-name="Caminho 31" d="M165.879,264.648l3.657-.708-7.482,32.85h-3.5Z" transform="translate(-75.823 -261.261)" fill="#ff5b69"/>
      <path id="Caminho_32" data-name="Caminho 32" d="M182.094,314h-12.52l-.321,1.314a1.869,1.869,0,0,0,1.862,2.467h7.57a3.358,3.358,0,0,0,3.081-2.467Z" transform="translate(-78.686 -274.777)" fill="#263238"/>
      <path id="Caminho_33" data-name="Caminho 33" d="M123.107,314H110.594l-.321,1.314a1.869,1.869,0,0,0,1.862,2.467h7.57a3.358,3.358,0,0,0,3.081-2.467Z" transform="translate(-62.761 -274.777)" fill="#263238"/>
      <path id="Caminho_34" data-name="Caminho 34" d="M160.966,351.011a.416.416,0,0,1-.416-.409l-.92-43.011a.431.431,0,0,1,.409-.431h0a.416.416,0,0,1,.416.409l.905,43.019a.423.423,0,0,1-.409.423Z" transform="translate(-76.114 -272.93)" opacity="0.1"/>
    </g>
    <g id="freepik--Character--inject-33" transform="translate(103.229 182.398)">
      <path id="Caminho_35" data-name="Caminho 35" d="M193.345,406.457l-4.314-.066-1.241-10,4.314.066Z" transform="translate(-153.932 -246.982)" fill="#ff8b7b"/>
      <path id="Caminho_36" data-name="Caminho 36" d="M157.972,405.8l-3.942-2.2,2.942-9.278,3.942,2.2Z" transform="translate(-144.817 -246.423)" fill="#ff8b7b"/>
      <path id="Caminho_37" data-name="Caminho 37" d="M150.25,405.878l4.57,2.6a.365.365,0,0,1,.175.431l-1.153,3.76a.628.628,0,0,1-.927.35c-1.46-.854-2.482-1.555-4.336-2.606-1.139-.642-4.643-2.475-6.212-3.365s-.9-2.57-.175-2.343c3.248,1.007,5.92,1.372,7.3,1.066A1.058,1.058,0,0,1,150.25,405.878Z" transform="translate(-141.409 -249.221)" fill="#263238"/>
      <path id="Caminho_38" data-name="Caminho 38" d="M185.51,409.41l4.708.073a.372.372,0,0,1,.365.3l.788,3.847a.62.62,0,0,1-.628.73c-1.7-.051-4.154-.19-6.285-.226-2.5-.036-4.657.066-7.585,0-1.767,0-2.19-1.825-1.46-1.978,3.387-.686,6.139-.73,9.081-2.475a1.985,1.985,0,0,1,1.015-.27Z" transform="translate(-150.498 -250.497)" fill="#263238"/>
      <path id="Caminho_39" data-name="Caminho 39" d="M176.9,234.4a90.459,90.459,0,0,1-7.723,5.665c-1.343.869-2.708,1.73-4.161,2.519a27.913,27.913,0,0,1-4.767,2.139,12.547,12.547,0,0,1-1.5.38c-.277.051-.6.088-.905.117a6.269,6.269,0,0,1-1.044,0,5.709,5.709,0,0,1-2.19-.635,5.892,5.892,0,0,1-1.708-1.372,8.183,8.183,0,0,1-1.591-3.029,15.1,15.1,0,0,1-.5-2.745,30.886,30.886,0,0,1,.942-9.877l3.2.445a42.275,42.275,0,0,0,.847,8.636,9.864,9.864,0,0,0,.577,1.752,2.7,2.7,0,0,0,.664,1c.088.058.124.051.131,0s0-.037,0-.051a6.2,6.2,0,0,0,1.08-.343,25.085,25.085,0,0,0,3.584-1.905c1.226-.73,2.46-1.584,3.65-2.445,2.438-1.708,4.9-3.548,7.242-5.358Z" transform="translate(-143.928 -201.398)" fill="#ff8b7b"/>
      <path id="Caminho_40" data-name="Caminho 40" d="M181.433,231.909c-1.964,4.431-9.534,9.016-13.731,10.95-1.241.569-1.08,2.234-1.818,1.511,0,0-3.234-5.935-3.234-7.147s1.073-.489,1.949-1.307c3.154-2.92,9.753-9.337,13.87-10.045C183.856,224.923,183.272,227.778,181.433,231.909Z" transform="translate(-147.144 -200.893)" fill="#ff5b69"/>
      <path id="Caminho_41" data-name="Caminho 41" d="M162.233,240.359c-.416-.613-2.139.993-2.686,1.664s.956,3.11,1.409,4.38-.438,2.621.949,2.818c.73.1,2.811-.168,3.212-.73C166.058,247.287,163.233,241.834,162.233,240.359Z" transform="translate(-146.274 -204.817)" fill="#263238"/>
      <path id="Caminho_42" data-name="Caminho 42" d="M176.84,241.759c3.533-2.227,7.154-5.161,8.432-8.03.08-.2.175-.38.248-.569l.073-.73C180.8,233.248,177.541,238.095,176.84,241.759Z" transform="translate(-150.975 -202.713)" opacity="0.2"/>
      <path id="Caminho_43" data-name="Caminho 43" d="M154.494,227.789l2.781-4.124-4.541-1.854s-2.57,2.92-.73,5.468Z" transform="translate(-144.091 -199.845)" fill="#ff8b7b"/>
      <path id="Caminho_44" data-name="Caminho 44" d="M158.959,218.159l-4.176-.139-1.533,2.73,4.541,1.854Z" transform="translate(-144.606 -198.822)" fill="#ff8b7b"/>
      <path id="Caminho_45" data-name="Caminho 45" d="M187.79,396.39l.642,5.154,4.314.073-.642-5.154Z" transform="translate(-153.932 -246.982)" opacity="0.2"/>
      <path id="Caminho_46" data-name="Caminho 46" d="M161.443,396.517l-3.942-2.2-1.511,4.789,3.935,2.2Z" transform="translate(-145.346 -246.423)" opacity="0.2"/>
      <path id="Caminho_47" data-name="Caminho 47" d="M207.1,227.24c-4.65,16.381-3.708,33.763-4.132,37.281-3.373-.241-16.06-1.19-23-1.708-2.19-24.637,3.022-37.15,3.022-37.15s1.46-.285,3.489-.489c.628-.066,1.307-.124,2.015-.161.394,0,.788-.036,1.19-.044a85.2,85.2,0,0,1,9.782.73c.613.073,1.234.168,1.84.263s1.11.2,1.628.3C205.28,226.729,207.1,227.24,207.1,227.24Z" transform="translate(-151.676 -200.699)" fill="#ff5b69"/>
      <path id="Caminho_48" data-name="Caminho 48" d="M192.92,225c-1.934,1.037-2.5,4.833,1.248,4.979a10.845,10.845,0,0,0,8.534-4.256Z" transform="translate(-154.908 -200.707)" fill="#263238"/>
      <path id="Caminho_49" data-name="Caminho 49" d="M210.548,237.71c-.409,1.584.058,8.811,1.715,10.6.226-2.314.526-4.738.927-7.205Z" transform="translate(-160.039 -204.138)" opacity="0.2"/>
      <path id="Caminho_50" data-name="Caminho 50" d="M202.808,210.79c-.847,3.1-1.891,8.811.153,11.074a10.093,10.093,0,0,1-7.694,2.533c-3.745-.146-3.168-1.971-2.088-3.256,3.577-.577,3.65-3.19,3.248-5.679Z" transform="translate(-155.168 -196.87)" fill="#ff8b7b"/>
      <path id="Caminho_51" data-name="Caminho 51" d="M201.711,213.4l-3.781,2.767a10.41,10.41,0,0,1,.175,1.759c1.35-.095,3.307-1.46,3.548-2.825A4.76,4.76,0,0,0,201.711,213.4Z" transform="translate(-156.67 -197.575)" opacity="0.2"/>
      <path id="Caminho_52" data-name="Caminho 52" d="M192.586,206.213s-2.643-3.716-1.869-6.621C191.71,195.876,197.7,200.432,192.586,206.213Z" transform="translate(-154.684 -193.483)" fill="#263238"/>
      <path id="Caminho_53" data-name="Caminho 53" d="M203.055,201.848c-.584,4.241-.73,6.753-3.015,8.76-3.482,3.051-8.592.73-9.293-3.65-.635-3.891.416-10.176,4.716-11.556a5.84,5.84,0,0,1,7.592,6.446Z" transform="translate(-154.684 -192.637)" fill="#ff8b7b"/>
      <path id="Caminho_54" data-name="Caminho 54" d="M193.057,210.353c0,.65-.6.8-1.08,1.1a2.861,2.861,0,0,0-.825.883s-.62-.2-.365-1.307S193.057,209.747,193.057,210.353Z" transform="translate(-154.725 -196.659)" fill="#263238"/>
      <path id="Caminho_55" data-name="Caminho 55" d="M194.33,210.366c0,1.117,1.234.964,2.19,1.27a3.971,3.971,0,0,1,1.956,1.358,1.591,1.591,0,0,0-.27-1.708C197.009,209.716,194.33,209.76,194.33,210.366Z" transform="translate(-155.698 -196.65)" fill="#263238"/>
      <path id="Caminho_56" data-name="Caminho 56" d="M199.75,197.1c-2.657.788-10.111,1.613-9.2-2.19,1.27-5.322,4.628-2.548,5.11-1.788,2.139-1.548,11.578-.2,9.694,2.862,2.051.314,3.241,2.548,1.767,3.65s-3.263,5.6-4.249,5.468a13.226,13.226,0,0,1-3.46-.971l2.029-2.716S198.983,199.079,199.75,197.1Z" transform="translate(-154.657 -191.722)" fill="#263238"/>
      <path id="Caminho_57" data-name="Caminho 57" d="M209.55,197.834c1.46-.358,2.825-.518,4.008.577C213.47,196.571,210.952,196.315,209.55,197.834Z" transform="translate(-159.807 -193.104)" fill="#263238"/>
      <path id="Caminho_58" data-name="Caminho 58" d="M208.245,209.9a4.037,4.037,0,0,1-2.657,1.6c-1.416.2-1.934-1.1-1.387-2.336.489-1.117,1.818-2.562,3.161-2.19a1.832,1.832,0,0,1,.883,2.927Z" transform="translate(-158.305 -195.822)" fill="#ff8b7b"/>
      <path id="Caminho_59" data-name="Caminho 59" d="M182.994,368.256l7.3.109s-4.212-28.842-3.555-42.26c.2-4.081-.46-9.789.62-15.907,1.365-7.716,2.022-10.789,3.781-20.535,1.256-6.95,2.372-11.68,2.372-11.68l-15.118-1.124s-4.942,34.755-4.8,47.917C173.752,338.421,182.994,368.256,182.994,368.256Z" transform="translate(-150.099 -214.709)" fill="#ff5b69"/>
      <path id="Caminho_60" data-name="Caminho 60" d="M182.994,368.256l7.3.109s-4.212-28.842-3.555-42.26c.2-4.081-.46-9.789.62-15.907,1.365-7.716,2.022-10.789,3.781-20.535,1.256-6.95,2.372-11.68,2.372-11.68l-15.118-1.124s-4.942,34.755-4.8,47.917C173.752,338.421,182.994,368.256,182.994,368.256Z" transform="translate(-150.099 -214.709)" opacity="0.6"/>
      <path id="Caminho_61" data-name="Caminho 61" d="M187.363,322.53a52.042,52.042,0,0,0-.635,9.68c-1.256,3.548-2.351,6.913-3.117,9.906-1.336,5.234-3.453,13.177-5.511,20.8-2.241-8.935-4.424-19.265-4.49-25.849Z" transform="translate(-150.103 -227.04)" opacity="0.2"/>
      <path id="Caminho_62" data-name="Caminho 62" d="M181.439,277.64s-10.862,27.448-14.98,39.42c-4.511,13.082-11.789,48.392-11.789,48.392l6.869,3.891s10.7-29.105,15.133-41.844c5.052-14.512,18.98-37.442,19.608-48.72Z" transform="translate(-144.99 -214.92)" fill="#ff5b69"/>
      <path id="Caminho_63" data-name="Caminho 63" d="M181.439,277.64s-10.862,27.448-14.98,39.42c-4.511,13.082-11.789,48.392-11.789,48.392l6.869,3.891s10.7-29.105,15.133-41.844c5.052-14.512,18.98-37.442,19.608-48.72Z" transform="translate(-144.99 -214.92)" opacity="0.6"/>
      <path id="Caminho_64" data-name="Caminho 64" d="M153.43,396.3l8.088,4.592,1.372-2.416-8.957-5.285Z" transform="translate(-144.655 -246.118)" fill="#ff5b69"/>
      <path id="Caminho_65" data-name="Caminho 65" d="M184.848,401.168l8.7.139.044-2.81-9.724-.307Z" transform="translate(-152.874 -247.468)" fill="#ff5b69"/>
      <path id="Caminho_66" data-name="Caminho 66" d="M199.586,205.067c0,.35-.234.613-.46.6s-.387-.314-.358-.657.226-.613.453-.6S199.616,204.724,199.586,205.067Z" transform="translate(-156.895 -195.147)" fill="#263238"/>
      <path id="Caminho_67" data-name="Caminho 67" d="M193.266,204.667c0,.35-.226.613-.453.6s-.394-.314-.365-.657.226-.613.453-.6S193.3,204.324,193.266,204.667Z" transform="translate(-155.189 -195.039)" fill="#263238"/>
      <path id="Caminho_68" data-name="Caminho 68" d="M194.3,205.28a12.41,12.41,0,0,1-1.883,2.84,2.007,2.007,0,0,0,1.635.438Z" transform="translate(-155.182 -195.382)" fill="#ff5652"/>
      <path id="Caminho_69" data-name="Caminho 69" d="M194.285,212.4a2.84,2.84,0,0,0,2.044-.993.1.1,0,1,0-.139-.146,2.759,2.759,0,0,1-2.321.905.11.11,0,0,0-.109.095.095.095,0,0,0,.095.109A3.153,3.153,0,0,0,194.285,212.4Z" transform="translate(-155.543 -196.99)" fill="#263238"/>
      <path id="Caminho_70" data-name="Caminho 70" d="M200.282,203.238a.241.241,0,0,0,.095,0,.2.2,0,0,0,.058-.285,2.022,2.022,0,0,0-1.591-.964.2.2,0,0,0-.2.2.2.2,0,0,0,.2.2h0a1.621,1.621,0,0,1,1.248.774A.2.2,0,0,0,200.282,203.238Z" transform="translate(-156.861 -194.494)" fill="#263238"/>
      <path id="Caminho_71" data-name="Caminho 71" d="M191.161,202.4a.219.219,0,0,0,.183-.073,1.613,1.613,0,0,1,1.351-.591.206.206,0,0,0,.051-.409,2.03,2.03,0,0,0-1.708.73.2.2,0,0,0,0,.292A.249.249,0,0,0,191.161,202.4Z" transform="translate(-154.792 -194.314)" fill="#263238"/>
      <path id="Caminho_72" data-name="Caminho 72" d="M151.064,405.774a4.66,4.66,0,0,0,1.058.416.088.088,0,0,0,.1,0,.117.117,0,0,0,0-.117c-.088-.161-.876-1.591-1.416-1.613a.328.328,0,0,0-.292.168.6.6,0,0,0-.08.569A1.328,1.328,0,0,0,151.064,405.774Zm.869.146c-.73-.234-1.183-.533-1.292-.818a.416.416,0,0,1,.058-.394.132.132,0,0,1,.117-.073c.277.015.788.723,1.117,1.285Z" transform="translate(-143.836 -249.161)" fill="#ff5b69"/>
      <path id="Caminho_73" data-name="Caminho 73" d="M152.579,406h.051a.1.1,0,0,0,.088-.058c0-.051.548-1.183.314-1.781a.57.57,0,0,0-.314-.336h0a.35.35,0,0,0-.416.073c-.314.38,0,1.621.241,2.051A.088.088,0,0,0,152.579,406Zm.1-1.949a.365.365,0,0,1,.161.2,2.46,2.46,0,0,1-.226,1.423c-.219-.511-.343-1.4-.153-1.621,0,0,.051-.073.175,0h0Z" transform="translate(-144.314 -248.979)" fill="#ff5b69"/>
      <path id="Caminho_74" data-name="Caminho 74" d="M187.817,409.852a.1.1,0,0,0,.015-.182c-.19-.109-1.913-1.015-2.438-.73a.336.336,0,0,0-.175.27h0a.6.6,0,0,0,.183.5c.467.423,1.708.27,2.4.146Zm-2.292-.73a4.2,4.2,0,0,1,1.942.6,2.745,2.745,0,0,1-1.927-.146.379.379,0,0,1-.117-.328.117.117,0,0,1,.066-.109Z" transform="translate(-153.237 -250.356)" fill="#ff5b69"/>
      <path id="Caminho_75" data-name="Caminho 75" d="M188.206,409.488h0a.117.117,0,0,0,.044-.095,2.92,2.92,0,0,0-.65-1.672.73.73,0,0,0-.562-.182h0c-.277,0-.365.161-.38.277-.088.489.927,1.46,1.46,1.679A.124.124,0,0,0,188.206,409.488Zm-1.226-1.737h.109a.533.533,0,0,1,.409.131,2.358,2.358,0,0,1,.547,1.343c-.526-.328-1.212-1.073-1.161-1.365a.124.124,0,0,1,.095-.11ZM187.074,407.633Z" transform="translate(-153.625 -249.991)" fill="#ff5b69"/>
      <path id="Caminho_76" data-name="Caminho 76" d="M216.635,231.65c.949,1.767,1.767,3.511,2.613,5.285s1.584,3.584,2.329,5.409,1.416,3.65,2.037,5.606l.445,1.46.394,1.46c.131.5.234,1.022.35,1.526l.088.394.08.526a9.522,9.522,0,0,1,.095.964,20.059,20.059,0,0,1-.139,3.307c-.117,1.037-.263,2.037-.438,3.022-.358,1.971-.8,3.891-1.285,5.789a114.018,114.018,0,0,1-3.5,11.169l-3.117-.861c.65-3.738,1.277-7.526,1.832-11.257.27-1.862.518-3.723.686-5.563.088-.912.153-1.818.183-2.7a16.432,16.432,0,0,0-.066-2.446,1.639,1.639,0,0,0-.073-.46l-.044-.19-.088-.307c-.131-.416-.234-.832-.38-1.256l-.431-1.27-.474-1.277c-.65-1.715-1.38-3.424-2.117-5.11s-1.555-3.416-2.365-5.11-1.643-3.416-2.445-5.066Z" transform="translate(-160.147 -202.502)" fill="#ff8b7b"/>
      <path id="Caminho_77" data-name="Caminho 77" d="M214.922,227.946c3.1.964,7.19,13.8,8.811,19.257a2.765,2.765,0,0,1,.511,2.621l-6.3,2.781c-1.46-.73-2.365-2.256-1.818-3.008-3.3-6.227-5.891-10.884-7.139-14.6C207.14,229.493,210.162,226.42,214.922,227.946Z" transform="translate(-159.507 -201.397)" fill="#ff5b69"/>
      <path id="Caminho_78" data-name="Caminho 78" d="M219.3,258.81c-.635.38,1.314,2.38,1.942,2.964s2.723-.942,4.03-1.321,2.591.6,2.869-.774c.153-.73,0-2.818-.5-3.256C226.45,255.415,220.837,257.9,219.3,258.81Z" transform="translate(-162.407 -209.127)" fill="#263238"/>
      <path id="Caminho_79" data-name="Caminho 79" d="M218.605,290.85l-3.365,2.8,4.19,3.022s2.752-2.92,1.518-4.657Z" transform="translate(-161.343 -218.486)" fill="#ff8b7b"/>
      <path id="Caminho_80" data-name="Caminho 80" d="M212.61,298.61l4.146,2.015,1.964-2.913-4.19-3.022Z" transform="translate(-160.633 -219.523)" fill="#ff8b7b"/>
    </g>
  </g>
</svg>
