<svg xmlns="http://www.w3.org/2000/svg" width="686.848" height="686.315" viewBox="0 0 686.848 686.315">
  <g id="Maintenance-amico" transform="translate(-23.601 -25.053)">
    <g id="freepik--Floor--inject-98" transform="translate(23.601 349.214)">
      <path id="freepik--floor--inject-98-2" data-name="freepik--floor--inject-98" d="M124.192,545.1c134.113,70.7,351.559,70.7,485.673,0s134.113-185.386,0-256.1-351.559-70.7-485.673,0S-9.937,474.382,124.192,545.1Z" transform="translate(-23.601 -235.966)" fill="#f5f5f5"/>
    </g>
    <g id="freepik--Shadow--inject-98" transform="translate(62.176 460.463)">
      <path id="Caminho_81" data-name="Caminho 81" d="M225.156,383.583l4.027-4.8L107.2,308.35l-8.269,4.764,43.326,25.021-41.6,24.022-43.7-25.237L48.7,341.7l124.861,72.082,1.306-1.568.661.369L223.419,385l.384.215.692-.845,1.03-.584Z" transform="translate(-48.7 -308.35)" fill="#e0e0e0"/>
      <ellipse id="freepik--shadow--inject-98-2" data-name="freepik--shadow--inject-98" cx="67.963" cy="32.383" rx="67.963" ry="32.383" transform="translate(406.505 80.751)" fill="#e0e0e0"/>
      <ellipse id="freepik--shadow--inject-98-3" data-name="freepik--shadow--inject-98" cx="67.963" cy="32.383" rx="67.963" ry="32.383" transform="translate(201.201 147.5)" fill="#e0e0e0"/>
      <path id="freepik--shadow--inject-98-4" data-name="freepik--shadow--inject-98" d="M396.125,419.9c13.187,7.685,34.566,7.685,47.753,0s13.187-19.98,0-27.573-34.566-7.608-47.753,0S382.938,412.3,396.125,419.9Z" transform="translate(132.536 -266.318)" fill="#e0e0e0"/>
      <ellipse id="freepik--shadow--inject-98-5" data-name="freepik--shadow--inject-98" cx="33.767" cy="19.488" rx="33.767" ry="19.488" transform="translate(29.463 128.396)" fill="#e0e0e0"/>
    </g>
    <g id="freepik--Ladder--inject-98" transform="translate(61.519 242.263)">
      <path id="Caminho_82" data-name="Caminho 82" d="M157.957,191.586,89.533,377.971h0a2.444,2.444,0,0,1-1.2,1.291,6.87,6.87,0,0,1-6.24,0,2.352,2.352,0,0,1-1.276-1.537,1.4,1.4,0,0,1,0-.507,4.258,4.258,0,0,1,.246-1.276l68.655-187.4a4.426,4.426,0,1,1,8.3,3.074Z" transform="translate(-30.81 -156.081)" fill="#37474f"/>
      <line id="Linha_1" data-name="Linha 1" x2="68.67" y2="39.653" transform="translate(35.669 163.747)" fill="none" stroke="#37474f" stroke-miterlimit="10" stroke-width="6"/>
      <line id="Linha_2" data-name="Linha 2" x2="68.686" y2="39.653" transform="translate(85.604 134.914)" fill="none" stroke="#37474f" stroke-miterlimit="10" stroke-width="6"/>
      <path id="Caminho_83" data-name="Caminho 83" d="M94.68,189.081l36.625-21.148a9.667,9.667,0,0,1,14.8,6.578l60.8,284.457a2.533,2.533,0,0,1,.077.584,2.751,2.751,0,0,1,0,.615,2.367,2.367,0,0,1-1.276,1.537,6.87,6.87,0,0,1-6.24,0,2.643,2.643,0,0,1-1.214-1.322,2.1,2.1,0,0,1,0-.261L137.468,176.355a1.614,1.614,0,0,0-.569-1.076,1.537,1.537,0,0,0-1.168.307L99.091,196.735" transform="translate(-23.355 -166.379)" fill="#455a64"/>
      <path id="Caminho_84" data-name="Caminho 84" d="M141.828,375.2l-22.3-12.88a2.935,2.935,0,0,1-1.337-2.305V359.5a2.9,2.9,0,0,1,1.337-2.305l53.516-30.908a2.936,2.936,0,0,1,2.674,0l22.3,12.88a2.951,2.951,0,0,1,1.337,2.305v.538a2.951,2.951,0,0,1-1.337,2.305L144.5,375.2a2.936,2.936,0,0,1-2.674,0Z" transform="translate(-10.731 -80.694)" fill="#ff5b69"/>
      <path id="Caminho_85" data-name="Caminho 85" d="M118.59,346.94a2.69,2.69,0,0,0-.4,1.322v.523a2.936,2.936,0,0,0,1.337,2.305l22.3,12.849a2.736,2.736,0,0,0,1.337.323v-3.151Z" transform="translate(-10.731 -69.429)" opacity="0.1"/>
      <path id="Caminho_86" data-name="Caminho 86" d="M134.44,367.407v3.151a2.736,2.736,0,0,0,1.337-.323l26.758-15.369,26.758-15.446a2.951,2.951,0,0,0,1.337-2.305v-.538a2.644,2.644,0,0,0-.4-1.306Z" transform="translate(-2.006 -75.695)" opacity="0.15"/>
      <path id="Caminho_87" data-name="Caminho 87" d="M135.538,345.793l-22.316-12.88a2.982,2.982,0,0,1-1.322-2.305v-.538a2.982,2.982,0,0,1,1.322-2.305l53.532-30.892a2.9,2.9,0,0,1,2.659,0l22.316,12.88a2.935,2.935,0,0,1,1.322,2.305v.553a2.89,2.89,0,0,1-1.322,2.306l-53.547,30.877a2.905,2.905,0,0,1-2.644,0Z" transform="translate(-14.108 -96.485)" fill="#ff5b69"/>
      <path id="Caminho_88" data-name="Caminho 88" d="M112.284,317.51a2.659,2.659,0,0,0-.384,1.306v.538a2.982,2.982,0,0,0,1.322,2.305l22.316,12.88a2.69,2.69,0,0,0,1.337.323v-3.151Z" transform="translate(-14.108 -85.231)" opacity="0.1"/>
      <path id="Caminho_89" data-name="Caminho 89" d="M128.15,337.977v3.151a2.674,2.674,0,0,0,1.322-.323l26.773-15.369L183,309.974a2.889,2.889,0,0,0,1.322-2.305v-.523a2.613,2.613,0,0,0-.384-1.306Z" transform="translate(-5.383 -91.497)" opacity="0.15"/>
      <path id="Caminho_90" data-name="Caminho 90" d="M129.263,316.363l-22.316-12.88a2.951,2.951,0,0,1-1.337-2.305v-.538a2.951,2.951,0,0,1,1.337-2.305l53.532-30.892a2.9,2.9,0,0,1,2.659,0l22.3,12.88a2.936,2.936,0,0,1,1.337,2.305v.523a2.9,2.9,0,0,1-1.337,2.305l-53.516,30.908a2.9,2.9,0,0,1-2.659,0Z" transform="translate(-17.486 -112.287)" fill="#ff5b69"/>
      <path id="Caminho_91" data-name="Caminho 91" d="M106,288.08a2.69,2.69,0,0,0-.4,1.306v.538a2.951,2.951,0,0,0,1.337,2.306l11.158,6.44,11.158,6.44a2.629,2.629,0,0,0,1.322.323v-3.166Z" transform="translate(-17.491 -101.033)" opacity="0.1"/>
      <path id="Caminho_92" data-name="Caminho 92" d="M121.85,308.564v3.166a2.69,2.69,0,0,0,1.337-.323l26.758-15.446L176.7,280.5a2.9,2.9,0,0,0,1.337-2.305v-.523a2.89,2.89,0,0,0-.384-1.322Z" transform="translate(-8.766 -107.331)" opacity="0.15"/>
      <path id="Caminho_93" data-name="Caminho 93" d="M122.948,286.933l-22.3-12.88a2.951,2.951,0,0,1-1.337-2.305v-.538a2.951,2.951,0,0,1,1.337-2.305l53.516-30.892a2.9,2.9,0,0,1,2.659,0l22.316,12.88a2.9,2.9,0,0,1,1.337,2.305v.523a2.936,2.936,0,0,1-1.337,2.305l-53.532,30.908a2.951,2.951,0,0,1-2.659,0Z" transform="translate(-20.869 -128.089)" fill="#ff5b69"/>
      <path id="Caminho_94" data-name="Caminho 94" d="M115.56,279.134V282.3a2.674,2.674,0,0,0,1.322-.323l26.773-15.446,26.758-15.462a2.936,2.936,0,0,0,1.337-2.305v-.523a2.69,2.69,0,0,0-.4-1.322Z" transform="translate(-12.143 -123.133)" opacity="0.15"/>
      <path id="Caminho_95" data-name="Caminho 95" d="M99.694,258.65a2.828,2.828,0,0,0-.384,1.306v.538a2.951,2.951,0,0,0,1.337,2.305l22.3,12.88a2.691,2.691,0,0,0,1.337.323v-3.166Z" transform="translate(-20.869 -116.835)" opacity="0.1"/>
      <path id="Caminho_96" data-name="Caminho 96" d="M121.818,260.483l-37.086-21.41a2.936,2.936,0,0,1-1.322-2.305v-.523a2.951,2.951,0,0,1,1.322-2.305l53.532-30.908a2.905,2.905,0,0,1,2.659,0l37.148,21.41a2.936,2.936,0,0,1,1.322,2.305v.523a2.982,2.982,0,0,1-1.322,2.305l-53.593,30.908A3.074,3.074,0,0,1,121.818,260.483Z" transform="translate(-29.406 -146.871)" fill="#ff5b69"/>
      <path id="Caminho_97" data-name="Caminho 97" d="M109.26,249.7v3.151a2.69,2.69,0,0,0,1.337-.307l26.758-15.462L164.19,221.64a2.982,2.982,0,0,0,1.322-2.305V218.8a2.659,2.659,0,0,0-.384-1.306Z" transform="translate(-15.526 -138.936)" opacity="0.15"/>
      <path id="Caminho_98" data-name="Caminho 98" d="M83.794,223.67a2.889,2.889,0,0,0-.384,1.322v.523a2.936,2.936,0,0,0,1.322,2.305l37.086,21.41a2.659,2.659,0,0,0,1.322.307v-3.151Z" transform="translate(-29.406 -135.617)" opacity="0.1"/>
      <path id="Caminho_99" data-name="Caminho 99" d="M125.546,210.346,57.075,396.515h0l-.154.415a2.859,2.859,0,0,1-1.107,1.076,6.993,6.993,0,0,1-6.255,0,2.428,2.428,0,0,1-1.276-1.537,2.8,2.8,0,0,1,0-.507,4.2,4.2,0,0,1,.261-1.291l68.7-187.368a4.426,4.426,0,1,1,8.3,3.074Z" transform="translate(-48.273 -146.008)" fill="#37474f"/>
      <path id="Caminho_100" data-name="Caminho 100" d="M101.689,188.8a6.855,6.855,0,0,0-2.936,6.609L159.57,479.854a2.673,2.673,0,0,1,.092.692,2.631,2.631,0,0,1,0,.492,2.4,2.4,0,0,1-1.276,1.537,6.87,6.87,0,0,1-6.24,0,2.721,2.721,0,0,1-1.214-1.276l-.077-.369L90.085,197.272a15.769,15.769,0,0,1,7.162-16.122" transform="translate(-25.952 -158.448)" fill="#455a64"/>
    </g>
    <g id="freepik--paint-pot--inject-98" transform="translate(90.088 543.165)">
      <g id="freepik--paint-pot--inject-98-2" data-name="freepik--paint-pot--inject-98" transform="translate(0)">
        <path id="Caminho_101" data-name="Caminho 101" d="M128.467,373.328l-56.406-.768-.492,46.108h0c0,4.18,2.674,8.376,8.146,11.619,10.943,6.471,28.8,6.67,39.884.43,5.594-3.151,8.392-7.331,8.392-11.542Z" transform="translate(-64.331 -356.575)" fill="#37474f"/>
        <path id="Caminho_102" data-name="Caminho 102" d="M80.279,366.725c-11.081,6.24-11.189,16.553-.246,23.054s28.8,6.67,39.96.43,11.189-16.553.246-23.054S91.36,360.485,80.279,366.725Z" transform="translate(-64.156 -362.16)" fill="#455a64"/>
        <path id="Caminho_103" data-name="Caminho 103" d="M125,377.867a6.84,6.84,0,0,1-.4,2.2c-.861,2.644-3.166,5.1-6.763,7.131a38.577,38.577,0,0,1-18.781,4.227A38.3,38.3,0,0,1,80.4,386.812,13.725,13.725,0,0,1,73.87,379.7a6.962,6.962,0,0,1-.4-2.367c0-3.443,2.582-6.763,7.147-9.3a37.7,37.7,0,0,1,18.751-4.242,37.916,37.916,0,0,1,18.689,4.611C122.606,371.073,125,374.424,125,377.867Z" transform="translate(-63.311 -361.298)" fill="#263238"/>
        <path id="Caminho_104" data-name="Caminho 104" d="M124.484,378.474c-.861,2.644-3.166,5.1-6.763,7.131a38.577,38.577,0,0,1-18.781,4.227,38.3,38.3,0,0,1-18.658-4.611A13.725,13.725,0,0,1,73.75,378.1,13.479,13.479,0,0,1,80.5,371a38.037,38.037,0,0,1,18.751-4.257,38.254,38.254,0,0,1,18.689,4.611,13.833,13.833,0,0,1,6.547,7.116Z" transform="translate(-63.161 -359.707)" fill="#ff5b69"/>
        <path id="Caminho_105" data-name="Caminho 105" d="M98.881,384.394c1.23-.707,2.229-.108,2.213,1.306a4.933,4.933,0,0,1-2.321,3.827c-1.245.707-2.229.108-2.213-1.306a4.9,4.9,0,0,1,2.321-3.827Z" transform="translate(-50.913 -350.381)" fill="#263238"/>
        <path id="Caminho_106" data-name="Caminho 106" d="M74.5,379.419c-3.074,6.148-9.222,20.656-1.26,26.574.338.246.646.461.984.676v2.951c-.8-.492-1.629-1.045-2.428-1.629-11.973-8.868,1.537-31.646,2.121-32.6a1.137,1.137,0,0,1,.676-.523Z" transform="translate(-66.86 -355.335)" fill="#e0e0e0"/>
        <path id="Caminho_107" data-name="Caminho 107" d="M113.312,386.969c-.338.707-9.053,17.367-23.392,20.718a20.811,20.811,0,0,1-4.934.584,24.913,24.913,0,0,1-13.356-4.18v-2.951c5.917,4.119,11.881,5.533,17.706,4.18,13.233-3.074,21.7-19.335,21.763-19.488a1.23,1.23,0,0,1,1.66-.523,1.2,1.2,0,0,1,.553,1.66Z" transform="translate(-64.299 -349.805)" fill="#e0e0e0"/>
      </g>
    </g>
    <g id="freepik--Gear--inject-98" transform="translate(247.009 25.053)">
      <path id="Caminho_108" data-name="Caminho 108" d="M178.13,418.5l-5.84-3.366a7.377,7.377,0,0,1-3.32-5.764V143.126a7.346,7.346,0,0,1,3.32-5.764l193.132-111.5a7.362,7.362,0,0,1,6.655,0l5.825,3.366a7.347,7.347,0,0,1,3.335,5.764V301.246a7.347,7.347,0,0,1-3.335,5.764L184.785,418.5a7.362,7.362,0,0,1-6.655,0Z" transform="translate(-168.955 -25.047)" fill="#ff5b69"/>
      <path id="Caminho_109" data-name="Caminho 109" d="M380.852,34.439c-.231-1.721-1.629-2.352-3.289-1.383l-193.132,111.5a6.947,6.947,0,0,0-2.352,2.49l-12.48-7.208a6.809,6.809,0,0,1,2.352-2.49l193.116-111.5a7.362,7.362,0,0,1,6.655,0l5.84,3.366A7.454,7.454,0,0,1,380.852,34.439Z" transform="translate(-168.616 -25.053)" fill="#fff" opacity="0.4"/>
      <path id="Caminho_110" data-name="Caminho 110" d="M184.007,378.74a7.377,7.377,0,0,1-5.887-.338l-5.825-3.366a7.347,7.347,0,0,1-3.335-5.764V103.014a6.839,6.839,0,0,1,.984-3.274l12.48,7.208a6.809,6.809,0,0,0-.968,3.274V376.481C181.455,378.326,182.547,379.186,184.007,378.74Z" transform="translate(-168.96 15.05)" opacity="0.1"/>
      <path id="Caminho_111" data-name="Caminho 111" d="M344.542,172.993h0a1.537,1.537,0,0,0-1.537.154l-7.838,5.195a2.244,2.244,0,0,1-3.074-.707,18.179,18.179,0,0,0-1.537-1.86,3.827,3.827,0,0,1-.907-3.689l12.3-7.838-9.222-5.318h0a2.585,2.585,0,0,0-.6-.246l-5.871-1.306a3.2,3.2,0,0,0-3.32,1.537l-5.5,10.5a5.717,5.717,0,0,1-3.335,2.505l-.338.108a13.922,13.922,0,0,0,.492-2.444l-9.222-5.349h0a1.537,1.537,0,0,0-1.814.277l-8.776,6.9a4.918,4.918,0,0,0-1.675,3.719l.523,8.361a6.686,6.686,0,0,1-1.368,4.042c-1.429,1.721-2.8,3.52-4.073,5.395a4.61,4.61,0,0,1-3.566,1.814l-5.656-.277a3.658,3.658,0,0,0-3.243,1.983l-5.3,11.9a2.244,2.244,0,0,0,.907,2.859h0l6.255,3.612a2.751,2.751,0,0,1,.138,1.614,54.3,54.3,0,0,0-.968,5.687,7.239,7.239,0,0,1-1.906,3.858l-7.777,7.147a4.718,4.718,0,0,0-1.306,3.827l1.46,8.484a1.537,1.537,0,0,0,.707,1.153h0l9.222,5.349.123-10.62a2.244,2.244,0,0,1,3.074.707,16.234,16.234,0,0,0,1.537,1.86,3.873,3.873,0,0,1,.922,3.689l-3.842,10.7a1.937,1.937,0,0,0,.768,2.382h0l9.222,5.349,2.521-6.916,3.581-8.884a5.686,5.686,0,0,1,3.32-2.505,30.09,30.09,0,0,0,3.612-1.2,2,2,0,0,1,2.766,1.276l1.983,6.563a1.752,1.752,0,0,0,.753,1.03h0l9.3,5.349-1.629-10.267,2.843-2.244a4.872,4.872,0,0,0,1.66-3.719l-.523-8.361a6.639,6.639,0,0,1,1.368-4.042c1.445-1.721,3.612-2.644,4.887-4.5.722-1.061,1.537-2.767,2.766-2.705l5.641.277a3.643,3.643,0,0,0,3.243-1.983l5.318-11.911a2.259,2.259,0,0,0-1.183-3l-4.611-1.952a2.828,2.828,0,0,1-1.537-3.074,54.409,54.409,0,0,0,.984-5.687,7.1,7.1,0,0,1,1.89-3.858l7.792-7.147a4.611,4.611,0,0,0,1.276-2.659l7.07-5.5Zm-35.35,54.884c-9.529,7.47-18.628,5.441-20.349-4.611s6.056-22.7,15.569-30.185,17.168-6.916,18.889,3.074-4.565,24.238-14.078,31.722Z" transform="translate(-117.183 45.971)" fill="#263238"/>
      <path id="Caminho_112" data-name="Caminho 112" d="M274.4,202l-7.685,7.07a4.411,4.411,0,0,0-1.183,2.213l11.419,6.609v-.615a2.244,2.244,0,0,1,3.074.707h0l11.02-6.363Z" transform="translate(-117.108 69.957)" fill="#455a64"/>
      <path id="Caminho_113" data-name="Caminho 113" d="M290.235,191.636a45.679,45.679,0,0,1,2.828-3.9L282.089,181.4a4.089,4.089,0,0,1-1.537.338l-5.656-.277a3.489,3.489,0,0,0-2.336.845l16.906,9.744Z" transform="translate(-113.333 58.896)" fill="#455a64"/>
      <path id="Caminho_114" data-name="Caminho 114" d="M328.123,172.908a1.537,1.537,0,0,0-1.537.184l-7.777,5.118a2.259,2.259,0,0,1-3.074-.707,15.12,15.12,0,0,0-1.537-1.86,3.842,3.842,0,0,1-.907-3.7l.738-1.983,3.335-2.2a1.537,1.537,0,0,1,1.614-.154h0Z" transform="translate(-91.542 51.403)" fill="#455a64"/>
      <path id="Caminho_115" data-name="Caminho 115" d="M313.057,176.057c-.092-.092-.169-.215-.261-.323a3.827,3.827,0,0,1-.907-3.689l12.3-7.838-9.222-5.318h0a2.582,2.582,0,0,0-.6-.246l-5.871-1.306a3.2,3.2,0,0,0-3.32,1.537l-5.5,10.5a4.7,4.7,0,0,1-1.26,1.414l12.449,7.193Z" transform="translate(-99.453 45.949)" fill="#455a64"/>
      <path id="Caminho_116" data-name="Caminho 116" d="M283.39,171.305l11.419,6.593,9.406-8.607a15.679,15.679,0,0,0,.384-2.106l-9.222-5.349h0a1.537,1.537,0,0,0-1.829.338l-8.776,6.9a4.611,4.611,0,0,0-1.383,2.229Z" transform="translate(-107.518 48.304)" fill="#455a64"/>
      <path id="Caminho_117" data-name="Caminho 117" d="M352.708,186.163l-1.46-8.484a1.4,1.4,0,0,0-2.321-1.014l-7.777,5.118a2.244,2.244,0,0,1-3.074-.707,14.835,14.835,0,0,0-1.537-1.844,3.9,3.9,0,0,1-.922-3.7l3.965-10.759a1.967,1.967,0,0,0-1.445-2.674l-5.856-1.306a3.181,3.181,0,0,0-3.32,1.537l-5.518,10.5a5.687,5.687,0,0,1-3.32,2.505,30.092,30.092,0,0,0-3.612,1.2,1.983,1.983,0,0,1-2.767-1.276l-1.983-6.563a1.537,1.537,0,0,0-2.49-.784l-8.776,6.9a4.872,4.872,0,0,0-1.66,3.719l.523,8.361a6.686,6.686,0,0,1-1.368,4.042c-1.445,1.721-2.8,3.52-4.088,5.395a4.518,4.518,0,0,1-3.566,1.814l-5.641-.277a3.643,3.643,0,0,0-3.181,2.013l-5.395,11.988a2.259,2.259,0,0,0,1.183,3.074l4.611,1.952a2.828,2.828,0,0,1,1.537,3.074,54.4,54.4,0,0,0-.984,5.687,7.055,7.055,0,0,1-1.89,3.858l-7.792,7.147a4.718,4.718,0,0,0-1.306,3.827l1.537,8.5a1.4,1.4,0,0,0,2.321,1l7.777-5.118a2.259,2.259,0,0,1,3.074.707,18.183,18.183,0,0,0,1.537,1.86,3.842,3.842,0,0,1,.907,3.7l-3.965,10.759a1.967,1.967,0,0,0,1.445,2.674l5.871,1.306a3.2,3.2,0,0,0,3.32-1.537l5.5-10.5a5.764,5.764,0,0,1,3.335-2.505,27.658,27.658,0,0,0,3.612-1.2,2,2,0,0,1,2.767,1.276l1.983,6.563a1.537,1.537,0,0,0,2.474.784l8.776-6.9a4.934,4.934,0,0,0,1.675-3.719l-.523-8.361a6.578,6.578,0,0,1,1.368-4.042c1.429-1.721,2.8-3.52,4.073-5.395a4.611,4.611,0,0,1,3.566-1.814l5.656.277a3.658,3.658,0,0,0,3.243-1.983l5.3-11.9a2.259,2.259,0,0,0-1.183-3.074l-4.611-1.952a2.8,2.8,0,0,1-1.537-3.074,54.319,54.319,0,0,0,.968-5.687,7.13,7.13,0,0,1,1.906-3.842l7.777-7.162a4.718,4.718,0,0,0,1.276-3.965Zm-37.5,45.217c-9.514,7.485-18.628,5.441-20.349-4.611s4.611-24.176,14.109-31.661,18.628-5.441,20.349,4.611S324.72,223.895,315.207,231.379Z" transform="translate(-113.929 47.801)" fill="#37474f"/>
      <path id="Caminho_118" data-name="Caminho 118" d="M341.743,129.353l-9.1-5.241h0a1.537,1.537,0,0,0-1.414,0l-16.445,7.408a1.967,1.967,0,0,1-2.751-1.276,36.887,36.887,0,0,0-3.658-8.146,4.611,4.611,0,0,1-.246-3.981l10.958-22.1a2.505,2.505,0,0,0-.984-3.228l-11.881-6.855a2.474,2.474,0,0,0-3.274.753l-13.679,20.58a4.611,4.611,0,0,1-3.581,1.783,33.457,33.457,0,0,0-4.765.215V94.249L271.8,88.977h0a1.537,1.537,0,0,0-1.537.138L251.816,99.782a5.026,5.026,0,0,0-2.213,3.458l-1.844,20.549a6.808,6.808,0,0,1-1.921,3.842A111.537,111.537,0,0,0,235.571,138.5a3.566,3.566,0,0,1-3.627,1.03l-11.865-4.15a2.889,2.889,0,0,0-3.32,1.245l-13.587,23.515a2.9,2.9,0,0,0,.6,3.5l9.514,8.207a3.52,3.52,0,0,1,.922,3.658,109.122,109.122,0,0,0-4.273,14.309,6.778,6.778,0,0,1-2.367,3.581l-16.906,11.881a5,5,0,0,0-1.89,3.643v21.333a1.537,1.537,0,0,0,.661,1.368h0l9.1,5.256,13.51-6.409a32.274,32.274,0,0,0,1.691,3.074,4.611,4.611,0,0,1,.246,3.981l-10.958,22.1a2.475,2.475,0,0,0,.968,3.212l11.9,6.87a2.475,2.475,0,0,0,3.274-.768L232.82,248.4a4.519,4.519,0,0,1,3.566-1.783,36.963,36.963,0,0,0,8.9-.891,1.937,1.937,0,0,1,2.459,1.737l1.814,17.936a1.537,1.537,0,0,0,.707,1.26h0l9.083,5.226,10.912-16.015a5.01,5.01,0,0,0,2.2-3.458l1.844-20.549a4.165,4.165,0,0,1,2.367-3.074,43.34,43.34,0,0,0,14.355-10.067,3.75,3.75,0,0,1,3.673-.984l7.285,2.567a2.889,2.889,0,0,0,3.335-1.23l13.571-23.515a2.9,2.9,0,0,0-.584-3.5l-6.225-5.349a3.8,3.8,0,0,1-1.014-3.689,62.033,62.033,0,0,0,1.691-17.045,4.826,4.826,0,0,1,1.767-3.643l16.906-11.881a4.98,4.98,0,0,0,1.875-3.627l8.069-9.667Zm-80.674,84.532c-17.244,9.944-27.957,2.889-27.957-17.014s14.247-44.295,31.477-54.239,27.665-2.72,27.665,17.183-13.986,44.141-31.184,54.1Z" transform="translate(-158.324 7.461)" fill="#263238"/>
      <path id="Caminho_119" data-name="Caminho 119" d="M280.651,103.337l3.627-7.3a2.505,2.505,0,0,0-.984-3.228l-11.881-6.855a2.474,2.474,0,0,0-3.274.753l-13.663,20.549a3.8,3.8,0,0,1-.907.876l15.293,8.822Z" transform="translate(-123.53 7.472)" fill="#455a64"/>
      <path id="Caminho_120" data-name="Caminho 120" d="M208.615,154.84a5.963,5.963,0,0,1-1.306,1.383L190.4,168.1a4.612,4.612,0,0,0-1.122,1.276l10.313,5.948,22.393-12.741Z" transform="translate(-158.049 44.635)" fill="#455a64"/>
      <path id="Caminho_121" data-name="Caminho 121" d="M214.221,117.9a2.9,2.9,0,0,0-2.367,1.383L198.267,142.8a2.782,2.782,0,0,0-.307,1.721l11.711,6.763,18.6-25.16Z" transform="translate(-153.404 24.8)" fill="#455a64"/>
      <path id="Caminho_122" data-name="Caminho 122" d="M228.6,100.884l14.478,8.361,16.461-9.5V93.122l-9.129-5.272h0a1.537,1.537,0,0,0-1.537.138L230.429,98.655a4.934,4.934,0,0,0-1.829,2.229Z" transform="translate(-136.937 8.588)" fill="#455a64"/>
      <path id="Caminho_123" data-name="Caminho 123" d="M339.2,150.213V128.927a1.368,1.368,0,0,0-2.09-1.368l-16.445,7.423a1.952,1.952,0,0,1-2.736-1.276,37.656,37.656,0,0,0-3.673-8.146,4.611,4.611,0,0,1-.246-3.981l10.958-22.1A2.505,2.505,0,0,0,324,96.251l-11.9-6.87a2.49,2.49,0,0,0-3.274.768L295.168,110.7a4.5,4.5,0,0,1-3.581,1.768,37.67,37.67,0,0,0-8.884.907,1.952,1.952,0,0,1-2.474-1.737l-1.8-18.059A1.383,1.383,0,0,0,276.2,92.44l-18.443,10.666a5,5,0,0,0-2.213,3.443L253.7,127.113a6.854,6.854,0,0,1-1.921,3.842,111.537,111.537,0,0,0-10.267,10.866,3.535,3.535,0,0,1-3.627,1.014L226.022,138.7a2.889,2.889,0,0,0-3.32,1.23l-13.587,23.531a2.9,2.9,0,0,0,.6,3.5l9.514,8.192a3.55,3.55,0,0,1,.922,3.673,109.129,109.129,0,0,0-4.273,14.309,6.778,6.778,0,0,1-2.367,3.581L196.6,208.6a5,5,0,0,0-1.89,3.643v21.333a1.383,1.383,0,0,0,2.106,1.353l16.445-7.408a1.952,1.952,0,0,1,2.736,1.26,36.732,36.732,0,0,0,3.673,8.161,4.611,4.611,0,0,1,.246,3.981l-10.928,22.163a2.475,2.475,0,0,0,.968,3.212l11.9,6.87a2.474,2.474,0,0,0,3.274-.768l13.633-20.518a4.611,4.611,0,0,1,3.566-1.783,36.24,36.24,0,0,0,8.9-.907,1.967,1.967,0,0,1,2.474,1.737l1.8,17.951a1.383,1.383,0,0,0,2.229,1.153l18.443-10.759a4.9,4.9,0,0,0,2.2-3.443l1.86-20.564a6.809,6.809,0,0,1,1.921-3.827A111.294,111.294,0,0,0,292.4,220.574a3.535,3.535,0,0,1,3.627-1.03l11.865,4.134a2.889,2.889,0,0,0,3.335-1.23l13.587-23.531a2.889,2.889,0,0,0-.6-3.489l-9.483-8.1a3.52,3.52,0,0,1-.922-3.658,113.511,113.511,0,0,0,4.273-14.324,6.839,6.839,0,0,1,2.367-3.581l16.906-11.881a4.98,4.98,0,0,0,1.844-3.673ZM266.966,217.3c-17.244,9.944-31.215,1.875-31.215-18.028s13.971-44.11,31.215-54.054,31.169-1.89,31.169,18.013S284.195,207.31,266.966,217.3Z" transform="translate(-155.138 9.317)" fill="#37474f"/>
      <path id="Caminho_124" data-name="Caminho 124" d="M296.333,115.963h0a1.537,1.537,0,0,0-1.46,0l-16.445,7.408a1.952,1.952,0,0,1-2.736-1.26,35.476,35.476,0,0,0-2.352-5.779l12.449-5.61a1.537,1.537,0,0,1,1.429,0h0Z" transform="translate(-112.914 20.851)" fill="#455a64"/>
    </g>
    <g id="freepik--character-2--inject-98" transform="translate(480.885 240.481)">
      <path id="Caminho_125" data-name="Caminho 125" d="M379.3,375.282V373.53c-.692,2.059-3.888,10.881-8.745,15.369-3.858,3.52-9.114,7.592-10.467,11.512s7.331,5.441,10.928,4.811c4.2-.738,9.606-3.074,12.557-6.747,2.075-2.536,3.4-5.564,4.872-7.562s4.9-4.242,5.7-6.563c.446-1.276-.077-4.058-.707-6.424s-1.168-4.611-1.921-4.334v1.337a9.621,9.621,0,0,1-6.148,2.059C383.62,377,379.286,376.65,379.3,375.282Z" transform="translate(-300.288 -53.37)" fill="#263238"/>
      <path id="Caminho_126" data-name="Caminho 126" d="M365.047,395.449c1.2-1.076,2.4-2.121,3.489-3.074,3.4-3.074,5.979-8.33,7.454-11.911a16.9,16.9,0,0,0,1.291-6.44V367H389.5v11.343h0v.307h0c-.584,2.536-6.148,9.3-9.375,13.71-2.152,2.951-6.148,6.716-11.066,7.362C364.4,400.382,362.05,398.938,365.047,395.449Z" transform="translate(-298.267 -56.877)" fill="#ffa8a7"/>
      <path id="Caminho_127" data-name="Caminho 127" d="M348.255,367.442V365.69c-.692,2.044-3.888,10.882-8.745,15.369-3.858,3.52-9.114,7.577-10.451,11.5s7.316,5.456,10.928,4.826c4.18-.753,9.606-3.074,12.541-6.747,2.075-2.551,3.4-5.564,4.887-7.577s4.887-4.227,5.687-6.547c.446-1.276-.077-4.073-.692-6.424s-1.183-4.534-1.921-4.334v1.337a9.714,9.714,0,0,1-6.148,2.06C352.574,369.148,348.24,368.795,348.255,367.442Z" transform="translate(-316.948 -57.58)" fill="#263238"/>
      <path id="Caminho_128" data-name="Caminho 128" d="M334.018,387.577c1.2-1.06,2.4-2.106,3.489-3.074,3.4-3.074,5.979-8.33,7.454-11.911a16.553,16.553,0,0,0,1.291-6.44V359.19h12.3v11.343h0v.307h0c-.6,2.536-6.148,9.3-9.391,13.71-2.136,2.951-6.148,6.7-11.051,7.362S331.021,391.066,334.018,387.577Z" transform="translate(-314.945 -61.07)" fill="#ffa8a7"/>
      <path id="Caminho_129" data-name="Caminho 129" d="M400.631,252.058c9.483,20.718-.338,93.661-.338,93.661.277,3.366,4.119,9.975,5.564,24.76,1.691,17.475-2.659,61.355-2.659,61.355a13.233,13.233,0,0,1-12.3.492s-11.665-66.088-13.832-83.456c-1.921-15.17-5.595-48.506-5.595-48.506l-10.42,48.429a90.31,90.31,0,0,1,3.3,14.954c.984,10.221-8.914,57.8-8.914,57.8s-4.227,1.537-12.3.369c0,0-3.5-63.137-4.426-75.448-1.537-20.687,3.935-85.193,7.685-97.442Z" transform="translate(-311.827 -120.219)" fill="#37474f"/>
      <path id="Caminho_130" data-name="Caminho 130" d="M367.574,292.03,364.5,272.788s-13.018-2.69-18.92-8.238a33.66,33.66,0,0,0,15.369,10.221l3.443,14.816L358.383,334.4Z" transform="translate(-308.002 -111.886)" fill="#263238"/>
      <path id="Caminho_131" data-name="Caminho 131" d="M360.66,263.281c7.177-23.884,16.322-59.449,12.88-59.449s-8.761-.323-12.649,3.581c-7.685,7.685-9.053,21.947-10.666,30.093s-2.751,14.555-5.318,26.62c-1.937,9.222-4.319,20.241-7.777,27.311a5.671,5.671,0,0,1-3.074,2.736c-3.474,1.414-5.072,3.212-7.854,5.272-2.182,1.537-3.842,1.814-3.7,2.474a3.074,3.074,0,0,0,3.643,2.044A21.132,21.132,0,0,0,331,302.335a28.6,28.6,0,0,1-5.886,7.024c-5.318,4.611-6.148,7.884,2.751,9.5,5.548,1.014,10.574-1.645,16.906-13.156a101.747,101.747,0,0,0,6.286-13.049C355.3,280.94,358.493,270.5,360.66,263.281Z" transform="translate(-321.13 -144.491)" fill="#ffa8a7"/>
      <path id="Caminho_132" data-name="Caminho 132" d="M381.612,204.4h0c12.157.83,13,6.7,16.046,13.125a20.764,20.764,0,0,1,.584,15.661l-8.484,24.5s3.981,9.59,8.576,18.643c-21.256,11.865-47.8,5.641-54.192-3.074-.261-1.829,1.368-16.184,2.382-25.559-3.735-9.406-4.734-15.369-3.151-21.517,2.936-11.527,14.324-22.747,19.35-22.332Z" transform="translate(-309.576 -144.487)" fill="#ff5b69"/>
      <path id="Caminho_133" data-name="Caminho 133" d="M369.112,215.048h4.718a24.852,24.852,0,0,0,24.837-24.837h0a24.991,24.991,0,0,0-24.975-24.991h-4.457a24.991,24.991,0,0,0-24.975,24.991h0A24.852,24.852,0,0,0,369.112,215.048Z" transform="translate(-308.711 -165.22)" fill="#263238"/>
      <path id="Caminho_134" data-name="Caminho 134" d="M393.448,222.268h0A14.678,14.678,0,0,1,378.77,207.59V176.16h0a14.678,14.678,0,0,1,14.678,14.678Z" transform="translate(-290.181 -159.346)" fill="#263238"/>
      <path id="Caminho_135" data-name="Caminho 135" d="M381.809,172.53l-3.689,5.917a3.381,3.381,0,0,0,4.8-.984,3.658,3.658,0,0,0-1.107-4.934Z" transform="translate(-290.53 -161.295)" fill="#263238"/>
      <path id="Caminho_136" data-name="Caminho 136" d="M352.233,172.38c-2.874,1.706-6.424,8.93-6.148,24.084.307,12.833,4.457,16,6.547,16.906s6.148.353,10.052-.292v7.685s-5.425,6.286-5.087,9.821,7.823,4.38,12.895.922a32.767,32.767,0,0,0,8.315-8.714v-18.6a4.918,4.918,0,0,0,6.978.661c4.319-2.874,4.488-9.975,1.967-12.526s-7.931-1.752-8.945,1.783c0,0-6.255.215-14.57-4.35A23.407,23.407,0,0,1,352.233,172.38Z" transform="translate(-307.739 -161.376)" fill="#ffa8a7"/>
      <path id="Caminho_137" data-name="Caminho 137" d="M356.391,186.516a1.645,1.645,0,0,0,1.537,1.752,1.675,1.675,0,0,0,1.706-1.537,1.616,1.616,0,0,0-3.228-.154Z" transform="translate(-302.199 -154.579)" fill="#263238"/>
      <path id="Caminho_138" data-name="Caminho 138" d="M356.48,193l-3.75,1.2a1.921,1.921,0,0,0,2.444,1.337A2.059,2.059,0,0,0,356.48,193Z" transform="translate(-304.163 -150.304)" fill="#f28f8f"/>
      <path id="Caminho_139" data-name="Caminho 139" d="M347.884,183.825l3.274-2.259a1.906,1.906,0,0,0-2.72-.553,2.075,2.075,0,0,0-.553,2.813Z" transform="translate(-306.94 -156.928)" fill="#263238"/>
      <path id="Caminho_140" data-name="Caminho 140" d="M348.261,185.749a1.612,1.612,0,1,0,1.691-1.6,1.66,1.66,0,0,0-1.691,1.6Z" transform="translate(-306.564 -155.056)" fill="#263238"/>
      <path id="Caminho_141" data-name="Caminho 141" d="M355.264,184.59l-.246,9.713L349.9,192.72Z" transform="translate(-305.683 -154.82)" fill="#f28f8f"/>
      <path id="Caminho_142" data-name="Caminho 142" d="M356.92,201.088c4.119-.553,12.618-2.982,13.94-6.348a8.56,8.56,0,0,1-2.982,4.288c-2.536,2.182-10.958,4.611-10.958,4.611Z" transform="translate(-301.913 -149.37)" fill="#f28f8f"/>
      <path id="Caminho_143" data-name="Caminho 143" d="M372.625,273.634a12.833,12.833,0,0,0,9.575-15.646c-.077-.261-.154-.492-.215-.676a4.15,4.15,0,0,0-4.3-2.843h0a12.434,12.434,0,0,0,5.3-7.931l2.582-12.956s-4.8-15.216-4.3-20.441l12.2.707L395,214.954a21.3,21.3,0,0,1-.338,13.233l-8.484,24.5s3.981,9.591,8.576,18.643A54.945,54.945,0,0,1,349.34,274.4a61.831,61.831,0,0,0,23.285-.768Z" transform="translate(-305.984 -139.49)" opacity="0.1"/>
      <path id="Caminho_144" data-name="Caminho 144" d="M394.874,266.9c-4.488,1.2-18.151,2.813-19.166-6.778a168.379,168.379,0,0,1,0-22.946,55.469,55.469,0,0,1,11.7-31.138l.553-.676s-1.983-1.614-6.148-.861a46.584,46.584,0,0,0-12.019,21.517c-6.148-.891-13.832-1.537-18.966-1.937a35.642,35.642,0,0,1,14.862-19.98,7.869,7.869,0,0,0-5.425-.092,33.9,33.9,0,0,0-15,19.7c-4.887,13.54-4.7,64-4.611,81.919l8.438-13.433h53.793C402.205,272.868,394.874,266.9,394.874,266.9Z" transform="translate(-310.665 -144.625)" fill="#37474f"/>
      <path id="Caminho_145" data-name="Caminho 145" d="M405.306,253.169s-5.733-12.3-13.71-30.416c-5.764-13.125-7.039-16.092-16.215-17.506l-3.228-.507c-4.35,14.278-1.353,20.733,4.365,30.508l11.312,21.917C392.365,256.274,405.459,254.537,405.306,253.169Z" transform="translate(-294.846 -144)" fill="#ffa8a7"/>
      <path id="Caminho_146" data-name="Caminho 146" d="M381.66,240.552c3.351,6.747,6.148,10.928,10.3,12.019s37.732.707,37.732.707V240.552l-32.03-4.872Z" transform="translate(-288.63 -127.387)" fill="#ffa8a7"/>
      <path id="Caminho_147" data-name="Caminho 147" d="M443.923,329.76H391.006V432.873c-.246,4.088,2.305,8.223,7.685,11.343,10.344,5.979,27.112,5.979,37.455,0,5.18-2.982,7.762-6.9,7.762-10.759h0Z" transform="translate(-283.62 -76.872)" fill="#ff5b69"/>
      <path id="Caminho_148" data-name="Caminho 148" d="M438.386,328.251h0c-5.856-3.827-2.213-13.141-2.213-13.141H398.717s3.535,9.222-2.213,13.141h0c-8.084,6.009-7.362,14.662,2.182,20.18,10.344,5.979,27.112,5.979,37.455,0C445.732,342.913,446.454,334.26,438.386,328.251Z" transform="translate(-283.647 -84.738)" fill="#ff5b69"/>
      <path id="Caminho_149" data-name="Caminho 149" d="M438.386,328.251h0c-5.856-3.827-2.213-13.141-2.213-13.141H398.717s3.535,9.222-2.213,13.141h0c-8.084,6.009-7.362,14.662,2.182,20.18,10.344,5.979,27.112,5.979,37.455,0C445.732,342.913,446.454,334.26,438.386,328.251Z" transform="translate(-283.647 -84.738)" opacity="0.05"/>
      <path id="Caminho_150" data-name="Caminho 150" d="M432.441,319.711a19.519,19.519,0,0,1,1.03-4.611H396a19.269,19.269,0,0,1,1,4.611C407.066,324.936,422.374,324.936,432.441,319.711Z" transform="translate(-280.93 -84.744)" opacity="0.05"/>
      <path id="Caminho_151" data-name="Caminho 151" d="M443.885,306.214h-3.074A19.75,19.75,0,0,0,436.2,302.6c-10.344-5.963-27.112-5.963-37.455,0a19.75,19.75,0,0,0-4.611,3.612H391.06v7.208h0c0,3.919,2.582,7.823,7.762,10.759,10.344,5.979,27.112,5.979,37.455,0,5.179-2.982,7.762-6.886,7.762-10.759h0Z" transform="translate(-283.582 -93.855)" fill="#ff5b69"/>
      <path id="Caminho_152" data-name="Caminho 152" d="M398.708,319.539c10.344,5.979,27.112,5.979,37.455,0s10.344-15.646,0-21.625-27.112-5.963-37.455,0S388.38,313.576,398.708,319.539Z" transform="translate(-283.638 -96.376)" fill="#ff5b69"/>
      <path id="Caminho_153" data-name="Caminho 153" d="M398.708,319.539c10.344,5.979,27.112,5.979,37.455,0s10.344-15.646,0-21.625-27.112-5.963-37.455,0S388.38,313.576,398.708,319.539Z" transform="translate(-283.638 -96.376)" fill="#fff" opacity="0.4"/>
      <path id="Caminho_154" data-name="Caminho 154" d="M410.014,429.174h0a5.164,5.164,0,0,1-5.164-5.164V350.344a5.164,5.164,0,0,1,5.164-5.164h0a5.164,5.164,0,0,1,5.149,5.164V424.01A5.164,5.164,0,0,1,410.014,429.174Z" transform="translate(-276.178 -68.592)" opacity="0.2"/>
      <path id="Caminho_155" data-name="Caminho 155" d="M421.242,427.254h0c-2.474.907-4.472-.369-4.472-2.843V349.378a7.07,7.07,0,0,1,4.472-6.148h0c2.474-.891,4.473.369,4.473,2.843v75.049A7.055,7.055,0,0,1,421.242,427.254Z" transform="translate(-269.778 -69.793)" opacity="0.2"/>
      <path id="Caminho_156" data-name="Caminho 156" d="M398.292,427.254h0c2.474.907,4.473-.369,4.473-2.843V349.378a7.07,7.07,0,0,0-4.473-6.148h0c-2.474-.891-4.472.369-4.472,2.843v75.049A7.054,7.054,0,0,0,398.292,427.254Z" transform="translate(-282.1 -69.793)" opacity="0.2"/>
      <path id="Caminho_157" data-name="Caminho 157" d="M419.053,184.89l-10.759-6.24-6.824,32.107s6.824,11.143,6.824,18.351V366.08l7.147,8.361,3.673-2.121V235.363c0-7.208,6.809-10.482,6.809-10.482Z" transform="translate(-277.993 -158.009)" fill="#e0e0e0"/>
      <path id="Caminho_158" data-name="Caminho 158" d="M416.663,186.275,405.9,180.02l-6.824,32.107s6.824,11.158,6.824,18.443V367.5l10.759,6.255V236.733c0-7.208,6.824-10.482,6.824-10.482Z" transform="translate(-279.276 -157.273)" fill="#ebebeb"/>
      <path id="Caminho_159" data-name="Caminho 159" d="M403.49,180.756l3.658-2.106,10.82,6.24-3.673,2.121Z" transform="translate(-276.908 -158.009)" fill="#fafafa"/>
      <path id="Caminho_160" data-name="Caminho 160" d="M414.193,182.71l-3.673,2.121,6.824,39.976L421,222.7Z" transform="translate(-273.134 -155.829)" fill="#f5f5f5"/>
      <path id="Caminho_161" data-name="Caminho 161" d="M417.1,233.084c.553-2.413,4.365-3.765,3.981.261s1.537,6.839,2.106,8.714c1.153,3.95.891,11.4-.661,12.88a8.361,8.361,0,0,1-6.5,2.936,13.372,13.372,0,0,1-8.1-3.289c-2.49-1.937-5.149-13.064.63-11.5,8.592,2.352,8.545-3.827,8.545-3.827Z" transform="translate(-276.045 -130.017)" fill="#ffa8a7"/>
    </g>
    <g id="freepik--character-1--inject-98" transform="translate(266.254 319.143)">
      <path id="Caminho_162" data-name="Caminho 162" d="M229.06,256c6.04,1.214,9.621,5.656,16.906,16.906s18.566,30.739,18.566,30.739L292.781,314.4l-1.214,12.71s-30.816-5.471-35.042-8.607-20.534-26.773-20.534-26.773Z" transform="translate(-155.935 -195.138)" fill="#ffa8a7"/>
      <path id="Caminho_163" data-name="Caminho 163" d="M225.77,254.51c6.271,1.107,12.48,2.628,16.338,8.607s17.905,28.818,17.905,28.818-5.118,12.019-14.463,13.832l-13.433-19.35Z" transform="translate(-157.702 -195.938)" fill="#e6e6e6"/>
      <path id="Caminho_164" data-name="Caminho 164" d="M216.983,255.194c-2.152.523-4.319.661-6.225,1.045-9.329,1.875-11.051,6.716-11.281,18-.369,18.858,0,62.507,0,62.507,8.315,6.04,39.023,9.744,56.513-3.074,0,0-.891-50.212-.891-59.111s-4.934-19.581-18.582-20.38Z" transform="translate(-171.907 -196.116)" fill="#f5f5f5"/>
      <rect id="Retângulo_9" data-name="Retângulo 9" width="12.065" height="20.656" transform="translate(37.422 315.148) rotate(180)" fill="#ffa8a7"/>
      <path id="Caminho_165" data-name="Caminho 165" d="M230.1,418.905l12.05.415.615-21.855L230.1,397.05Z" transform="translate(-155.377 -119.403)" fill="#ffa8a7"/>
      <path id="Caminho_166" data-name="Caminho 166" d="M259.881,323.074h0L257.714,274l-37.962,6.148a165.061,165.061,0,0,1-1.353,23.208c-.707,6.056-6.517,14.309-16.814,17.029a229.763,229.763,0,0,0-.092,23.807c.184,5.717-2.505,68.932-2.505,68.932-.277,3.32-3.473,9.222-3.719,21.148-.353,17.321,3.673,55.991,3.673,55.991a15.846,15.846,0,0,0,13.433.261s8.115-55.576,10.282-72.713c1.875-14.954,9.76-57.036,9.76-57.036l9.222,50.581a68.284,68.284,0,0,0-1.537,19.181c.553,7.915,7.9,47.645,7.9,47.645a16.522,16.522,0,0,0,13.94,1.061s.707-62.338.861-69.623C263,401.366,259.881,323.074,259.881,323.074Z" transform="translate(-174.091 -185.474)" fill="#37474f"/>
      <path id="Caminho_167" data-name="Caminho 167" d="M243.053,284.674c-.4-9.7-1.752-18.658-10.113-27.05a12.126,12.126,0,0,0-8.591-3.5h-1.8s8.392,6.655,11.681,16.322a64.949,64.949,0,0,1,2.659,18.843Z" transform="translate(-159.431 -196.148)" fill="#37474f"/>
      <path id="Caminho_168" data-name="Caminho 168" d="M211.06,418.171V416.45c.646,0,1.045.63,1.291,2.182.184,1.107.338,1.952.707,3.412a39.251,39.251,0,0,0,2.106,6.148c1.706,4.211,3.074,5.764,7.039,10.682a43.135,43.135,0,0,1,3.75,4.319c.738,1.291.984,4.9-.246,5.733C221.1,452,214.226,452,209.339,450.616a9.9,9.9,0,0,1-7.116-7.977c-.169-1.122-.108-2.259-.231-3.381a16.046,16.046,0,0,0-3.074-7.008,21.96,21.96,0,0,1-2.321-3.812c-1.014-2.474-.2-5.272.446-7.685.569-2.136,1.168-4.488,1.906-4.288v1.322a9.452,9.452,0,0,0,6.025,2.029C206.787,419.877,211.075,419.524,211.06,418.171Z" transform="translate(-173.623 -108.987)" fill="#263238"/>
      <path id="Caminho_169" data-name="Caminho 169" d="M243.535,409.391c.63,0,1.137.907,2.521,2.4a26.127,26.127,0,0,0,7.085,5.118c4.519,2.259,13.31,5.733,17.291,7.531,2.474,1.107,2.367,4.119-.2,5.825s-8.776,2.936-16.215,1.276c-4.057-.907-9.329-4.611-12.68-4.457s-9.59.154-12.05-1.537-1.537-5.318-.784-8.438c.768-3.412,1.706-8.714,2.843-8.484v1.168c1.445,2.2,8.93,3.074,12.126,1.537Z" transform="translate(-156.67 -113.193)" fill="#263238"/>
      <path id="Caminho_170" data-name="Caminho 170" d="M219.43,333.841a44.571,44.571,0,0,0,16.8-9.621s-3.243,6.055-12.88,11.711l4.611,44.986Z" transform="translate(-161.106 -158.508)" fill="#263238"/>
      <circle id="Elipse_8" data-name="Elipse 8" cx="16.584" cy="16.584" r="16.584" transform="translate(49.871 2.396)" fill="#263238"/>
      <path id="Caminho_171" data-name="Caminho 171" d="M206.07,236.42s2.69,12.618,3.765,14.693a5.687,5.687,0,0,0,3.3,2.659l-.2-8.868Z" transform="translate(-168.279 -205.652)" fill="#263238"/>
      <path id="Caminho_172" data-name="Caminho 172" d="M210.457,224.664a6.24,6.24,0,0,0-5.149,1.814c-2.213,2.259-.984,9.345,1.783,16.276l5.056.584Z" transform="translate(-169.301 -211.986)" fill="#263238"/>
      <path id="Caminho_173" data-name="Caminho 173" d="M214.427,246.056c-1.014.6-2.459-1.353-3.719-2.659s-5.333-3.074-7.377,1.2,1.8,10.159,5.026,11.174c5.533,1.737,6.363-1.814,6.363-1.814l.415,20.61h0c6.9,8.837,26.02,8.084,18.059-1.153v-6.148a34.485,34.485,0,0,0,7.47.384c4.073-.63,6.64-3.842,7.869-8.253,2-7.085,2.751-12.818,1.06-26.758-1.844-15.277-19.611-15.369-29.2-9.391S214.427,246.056,214.427,246.056Z" transform="translate(-170.058 -214.703)" fill="#ffa8a7"/>
      <path id="Caminho_174" data-name="Caminho 174" d="M213.553,293.508c.277-12.541-2.582-31.138-6.793-37.563a12.142,12.142,0,0,1,6.225-1.045s7.9,12.3,7.562,38.608Z" transform="translate(-167.909 -195.76)" fill="#37474f"/>
      <path id="Caminho_175" data-name="Caminho 175" d="M211.882,249.459c-.507,0-2.459-3.212-3.719-4.365-1.752-1.537.507-16.015.507-16.015a6.993,6.993,0,0,1,1.214-7.792c2.4-2.628,5.733-5.856,16.614-4.611,7.685.907,16.2,3.335,23.054,0a11.589,11.589,0,0,1-4.042,12.3s-2.474,1.537-8.96,2.382a95.748,95.748,0,0,1-18-.338c-1.875-.261-2.275,1.537-3.289,6.547C214.418,242,213.588,249.428,211.882,249.459Z" transform="translate(-167.513 -216.401)" fill="#263238"/>
      <path id="Caminho_176" data-name="Caminho 176" d="M210.418,227.2l-6.148-3.289a3.381,3.381,0,0,1,4.611-1.537,3.673,3.673,0,0,1,1.537,4.826Z" transform="translate(-169.246 -213.399)" fill="#263238"/>
      <path id="Caminho_177" data-name="Caminho 177" d="M228.381,253.389s-9.114-1.829-12.3-3.52a10.589,10.589,0,0,1-4.4-4.35,14.324,14.324,0,0,0,2.505,5.133c2.321,2.966,14.186,5.164,14.186,5.164Z" transform="translate(-165.262 -200.766)" fill="#f28f8f"/>
      <path id="Caminho_178" data-name="Caminho 178" d="M223.6,236.736a1.829,1.829,0,1,1-1.814-1.906,1.86,1.86,0,0,1,1.814,1.906Z" transform="translate(-160.832 -206.505)" fill="#263238"/>
      <path id="Caminho_179" data-name="Caminho 179" d="M222.524,232.007l-3.9,2.152a2.321,2.321,0,0,1,.907-3.074,2.183,2.183,0,0,1,3,.922Z" transform="translate(-161.679 -208.662)" fill="#263238"/>
      <path id="Caminho_180" data-name="Caminho 180" d="M222.045,243.52l4.165,1.537a2.182,2.182,0,0,1-2.828,1.383,2.321,2.321,0,0,1-1.337-2.92Z" transform="translate(-159.771 -201.839)" fill="#f28f8f"/>
      <path id="Caminho_181" data-name="Caminho 181" d="M234.156,233.863l-3.566-2.751a2.152,2.152,0,0,1,3.074-.476,2.382,2.382,0,0,1,.492,3.228Z" transform="translate(-155.114 -208.996)" fill="#263238"/>
      <path id="Caminho_182" data-name="Caminho 182" d="M233.467,236.4a1.829,1.829,0,1,1-1.814-1.906,1.875,1.875,0,0,1,1.814,1.906Z" transform="translate(-155.532 -206.688)" fill="#263238"/>
      <path id="Caminho_183" data-name="Caminho 183" d="M225.84,234.83l.584,10.974,5.733-1.952Z" transform="translate(-157.664 -206.505)" fill="#f28f8f"/>
      <path id="Caminho_184" data-name="Caminho 184" d="M300.512,253.851c0-3.381,2.828-8.1,1.967-10.6l-6.24-3.612-12.511,31.43-12.757,7.254-6.3-9.222,18.858-28.141-6.24-3.6c-.784.369-1.537.768-2.4,1.23-14.247,8.1-25.882,28.049-25.99,44.571,0,8.33,2.843,14.171,7.546,16.906h0l6.148,3.581.722-1.875h.461v146.24c-8.761,9.76-14.862,23.469-14.939,35.35,0,6.148,1.537,11,4.288,14.2l6.24,3.612,6.255-35.042,12.757-7.254,6.3,9.222L272.14,499.9l6.24,3.6s22.04-32.89,22.147-49.4a23.484,23.484,0,0,0-2.69-11.88l1.537-1.306-6.148-3.581h0a13.494,13.494,0,0,0-7.685-1.86V289.247C294.333,279.487,300.435,265.793,300.512,253.851Z" transform="translate(-145.315 -205.147)" fill="#455a64"/>
      <path id="Caminho_185" data-name="Caminho 185" d="M258.6,425.52l6.24,3.612V282.892l-6.24-3.612Z" transform="translate(-140.074 -182.638)" fill="#263238"/>
      <path id="Caminho_186" data-name="Caminho 186" d="M289.612,437.821V291.581c8.761-9.76,14.862-23.469,14.939-35.35,0-6.148-1.537-11-4.273-14.2l-12.511,31.43-12.757,7.254-6.3-9.222,12.618-31.753q-1.183.553-2.4,1.245c-14.247,8.1-25.882,28.049-25.99,44.571-.077,12.111,6.056,18.966,14.939,18.612v146.24c-8.761,9.744-14.862,23.454-14.939,35.35,0,6.148,1.537,11,4.288,14.217l12.5-31.446,12.757-7.239,6.3,9.222-12.618,31.738c.8-.369,1.537-.768,2.4-1.23,14.247-8.1,25.882-28.049,25.99-44.571C304.628,444.322,298.5,437.467,289.612,437.821Z" transform="translate(-143.113 -203.869)" fill="#37474f"/>
      <path id="Caminho_187" data-name="Caminho 187" d="M273.826,385.427l2.72-1.537,6.3,9.191L270.23,424.819l-6.24-3.6,12.618-31.753Z" transform="translate(-137.18 -126.469)" fill="#263238"/>
      <path id="Caminho_188" data-name="Caminho 188" d="M280.663,291.764c0,2.352-3.566,4.964-6.148,6.609s-5.933,3.935-4.611,8.684a6.778,6.778,0,0,0,8.945,4.7,9.76,9.76,0,0,0,5.794-7.808c.646-4.38,2.121-14.862-3.873-16.092Z" transform="translate(-134.165 -178.032)" fill="#ffa8a7"/>
      <path id="Caminho_189" data-name="Caminho 189" d="M184.783,320.31c10.39-46.646,16.906-56.867,31.354-62.2l-1.967,28.034s-13.556,30.2-15.6,40.959c-1.8,9.391-3.812,21.194-3.489,29.2a5.748,5.748,0,0,0,1.645,3.781c2.659,2.766,3.412,5.087,5.164,8.161,1.353,2.413,2.813,3.289,2.413,3.842a3.074,3.074,0,0,1-4.242.4,21.515,21.515,0,0,1-3.858-3.535,29.4,29.4,0,0,0,2.6,8.991c3.074,6.5,2.413,9.867-6.5,7.685-5.594-1.353-9.222-5.9-10.282-19.227a102.879,102.879,0,0,1-.446-14.77C182.493,338.953,183.108,327.81,184.783,320.31Z" transform="translate(-181.482 -194.005)" fill="#ffa8a7"/>
      <path id="Caminho_190" data-name="Caminho 190" d="M215.251,256a20.841,20.841,0,0,0-10.436,3.212c-3.627,2.444-9.667,12.3-13.494,24.483s-5.84,18.95-5.84,18.95,6.271,9.544,19.8,5.779c0,0,7.608-19.058,7.177-17.844C212.407,290.612,222.536,271.815,215.251,256Z" transform="translate(-179.335 -195.138)" fill="#e6e6e6"/>
    </g>
  </g>
</svg>
