<svg xmlns="http://www.w3.org/2000/svg" width="58.834" height="78.445" viewBox="0 0 58.834 78.445">
  <g id="hourglass" transform="translate(-64)">
    <g id="Grupo_2" data-name="Grupo 2" transform="translate(64)">
      <g id="Grupo_1" data-name="Grupo 1">
        <path id="Caminho_192" data-name="Caminho 192" d="M119.565,15.779V8.9a6.514,6.514,0,0,0,3.268-5.628V1.634A1.633,1.633,0,0,0,121.2,0H65.634A1.633,1.633,0,0,0,64,1.634V3.269A6.515,6.515,0,0,0,67.268,8.9v6.883a22.912,22.912,0,0,0,7.575,17.007l7.151,6.436-7.151,6.436a22.912,22.912,0,0,0-7.575,17.007v6.883A6.515,6.515,0,0,0,64,75.176V76.81a1.633,1.633,0,0,0,1.634,1.634H121.2a1.633,1.633,0,0,0,1.634-1.634V75.176a6.515,6.515,0,0,0-3.268-5.628V62.665a22.912,22.912,0,0,0-7.575-17.007l-7.152-6.436,7.151-6.436A22.912,22.912,0,0,0,119.565,15.779ZM107.618,27.928l-9.85,8.866a3.267,3.267,0,0,0,0,4.858l9.85,8.866a16.372,16.372,0,0,1,5.41,12.148v5.974h-4.086L94.724,49.682a1.692,1.692,0,0,0-2.614,0L77.892,68.639H73.806V62.665a16.372,16.372,0,0,1,5.41-12.149l9.85-8.866a3.267,3.267,0,0,0,0-4.858l-9.85-8.866a16.371,16.371,0,0,1-5.41-12.148V9.806h39.222v5.974A16.372,16.372,0,0,1,107.618,27.928Z" transform="translate(-64 0)" fill="#f8f5ff"/>
        <path id="Caminho_193" data-name="Caminho 193" d="M195.968,149.333h-22.53a1.634,1.634,0,0,0-1.21,2.732l11.379,10.5a1.633,1.633,0,0,0,2.193,0l11.378-10.5a1.634,1.634,0,0,0-1.21-2.732Z" transform="translate(-155.287 -126.453)" fill="#f8f5ff"/>
      </g>
    </g>
  </g>
</svg>
