<svg id="menu_3_" data-name="menu (3)" xmlns="http://www.w3.org/2000/svg" width="27.85" height="20.114" viewBox="0 0 27.85 20.114">
  <path id="Caminho_206" data-name="Caminho 206" d="M26.689,124.989H1.16a1.16,1.16,0,1,1,0-2.321H26.689a1.16,1.16,0,1,1,0,2.321Zm0,0" transform="translate(0 -113.771)" fill="#f8f5ff"/>
  <path id="Caminho_207" data-name="Caminho 207" d="M26.689,2.321H1.16A1.16,1.16,0,0,1,1.16,0H26.689a1.16,1.16,0,0,1,0,2.321Zm0,0" fill="#f8f5ff"/>
  <path id="Caminho_208" data-name="Caminho 208" d="M26.689,247.653H1.16a1.16,1.16,0,1,1,0-2.321H26.689a1.16,1.16,0,1,1,0,2.321Zm0,0" transform="translate(0 -227.539)" fill="#f8f5ff"/>
</svg>
