<svg id="money" xmlns="http://www.w3.org/2000/svg" width="86.292" height="86.292" viewBox="0 0 86.292 86.292">
  <path id="Caminho_198" data-name="Caminho 198" d="M73.62,12.672A43.1,43.1,0,1,0,12.672,73.62,43.1,43.1,0,1,0,73.62,12.672ZM43.146,81.236a38.09,38.09,0,1,1,38.09-38.09A38.133,38.133,0,0,1,43.146,81.236Z" fill="#f8f5ff"/>
  <path id="Caminho_199" data-name="Caminho 199" d="M93.865,61A32.865,32.865,0,1,0,126.73,93.865,32.9,32.9,0,0,0,93.865,61Zm0,60.674a27.809,27.809,0,1,1,27.809-27.809A27.841,27.841,0,0,1,93.865,121.674Z" transform="translate(-50.719 -50.719)" fill="#f8f5ff"/>
  <path id="Caminho_200" data-name="Caminho 200" d="M201.225,136.016a2.528,2.528,0,1,0,5.056,0,9.324,9.324,0,0,0-3.973-7.385,13.894,13.894,0,0,0-6.139-2.525v-2.73a2.528,2.528,0,1,0-5.056,0v2.73a13.892,13.892,0,0,0-6.139,2.525,8.851,8.851,0,0,0,0,14.771,13.894,13.894,0,0,0,6.139,2.525v10.013c-2.912-.712-5.056-2.6-5.056-4.755a2.528,2.528,0,1,0-5.056,0,9.324,9.324,0,0,0,3.973,7.385,13.894,13.894,0,0,0,6.139,2.525v2.755a2.528,2.528,0,1,0,5.056,0v-2.755a13.892,13.892,0,0,0,6.139-2.525,8.851,8.851,0,0,0,0-14.771,13.894,13.894,0,0,0-6.139-2.525V131.261C199.081,131.973,201.225,133.863,201.225,136.016Zm-15.169,0c0-2.153,2.144-4.043,5.056-4.755v9.509C188.2,140.059,186.056,138.169,186.056,136.016Zm15.169,15.169c0,2.153-2.144,4.043-5.056,4.755V146.43C199.081,147.141,201.225,149.031,201.225,151.184Z" transform="translate(-150.494 -100.48)" fill="#f8f5ff"/>
</svg>
