<svg xmlns="http://www.w3.org/2000/svg" width="84" height="84" viewBox="0 0 84 84">
  <g id="twitter" transform="translate(-0.001)">
    <circle id="Elipse_11" data-name="Elipse 11" cx="42" cy="42" r="42" transform="translate(0.001 0)" fill="#55acee"/>
    <g id="Grupo_7" data-name="Grupo 7" transform="translate(17.37 24.232)">
      <path id="Caminho_202" data-name="Caminho 202" d="M76.695,38.992a21.118,21.118,0,0,1-6.08,1.665A10.613,10.613,0,0,0,75.27,34.8a21.189,21.189,0,0,1-6.722,2.568,10.594,10.594,0,0,0-18.037,9.656A30.047,30.047,0,0,1,28.694,35.964,10.6,10.6,0,0,0,31.969,50.1a10.51,10.51,0,0,1-4.794-1.325c0,.045,0,.09,0,.134a10.591,10.591,0,0,0,8.491,10.378,10.626,10.626,0,0,1-4.78.183,10.6,10.6,0,0,0,9.888,7.351A21.367,21.367,0,0,1,25.1,71.2a29.94,29.94,0,0,0,16.224,4.756c19.469,0,30.116-16.128,30.116-30.117,0-.459-.01-.916-.031-1.369a21.464,21.464,0,0,0,5.282-5.478Z" transform="translate(-25.103 -34.028)" fill="#f1f2f2"/>
    </g>
  </g>
</svg>
