<svg id="youtube_1_" data-name="youtube (1)" xmlns="http://www.w3.org/2000/svg" width="69.192" height="69.192" viewBox="0 0 69.192 69.192">
  <path id="Caminho_203" data-name="Caminho 203" d="M224.113,225.344l15.023-8.653-15.023-8.652Zm0,0" transform="translate(-195.797 -182.096)" fill="#f8f5ff"/>
  <path id="Caminho_204" data-name="Caminho 204" d="M34.6,0a34.6,34.6,0,1,0,34.6,34.6A34.6,34.6,0,0,0,34.6,0ZM56.213,34.632s0,7.016-.89,10.4a5.417,5.417,0,0,1-3.811,3.81c-3.383.891-16.916.891-16.916.891s-13.5,0-16.916-.926A5.418,5.418,0,0,1,13.869,45c-.891-3.347-.891-10.4-.891-10.4s0-7.016.891-10.4a5.527,5.527,0,0,1,3.811-3.846C21.063,19.46,34.6,19.46,34.6,19.46s13.533,0,16.916.926A5.418,5.418,0,0,1,55.323,24.2c.926,3.383.89,10.434.89,10.434Zm0,0" fill="#f8f5ff"/>
</svg>
