<?xml version="1.0"?>
<svg xmlns="http://www.w3.org/2000/svg" xmlns:xlink="http://www.w3.org/1999/xlink" xmlns:svgjs="http://svgjs.com/svgjs" version="1.1" width="512" height="512" x="0" y="0" viewBox="0 0 512 512" style="enable-background:new 0 0 512 512" xml:space="preserve" class=""><g>
<g xmlns="http://www.w3.org/2000/svg">
	<g>
		<path d="M511.904,249.131C496.166,113.027,404.283,20.808,263.948,0.372c-8.983-1.307-16.913,5.962-16.913,15.04v101.041    c38.35,3.442,73.789,20.083,101.416,47.71c27.627,27.627,44.268,63.267,47.71,101.616h100.64    C505.696,265.779,512.925,257.968,511.904,249.131z" fill="#ffffff" data-original="#000000" style="" class=""/>
	</g>
</g>
<g xmlns="http://www.w3.org/2000/svg">
	<g>
		<path d="M297.567,268.115c-6.366-26.206-27.861-47.7-54.067-54.067c-55.724-13.537-104.936,35.673-91.399,91.399    c6.367,26.206,27.861,47.701,54.067,54.067C261.893,373.05,311.104,323.839,297.567,268.115z M224.835,331.78    c-24.814,0-45-20.186-45-45c0-24.814,20.186-45,45-45c24.814,0,45,20.186,45,45C269.835,311.594,249.649,331.78,224.835,331.78z" fill="#ffffff" data-original="#000000" style="" class=""/>
	</g>
</g>
<g xmlns="http://www.w3.org/2000/svg">
	<g>
		<path d="M224.835,271.78c-8.276,0-15,6.724-15,15s6.724,15,15,15s15-6.724,15-15S233.111,271.78,224.835,271.78z" fill="#ffffff" data-original="#000000" style="" class=""/>
	</g>
</g>
<g xmlns="http://www.w3.org/2000/svg">
	<g>
		<path d="M374.674,301.781c-8.418-0.001-14.647-7.047-14.677-15.464c-0.119-35.819-14.171-69.52-39.593-94.942    s-59.123-39.474-94.942-39.595c-8.417-0.027-15.463-6.257-15.463-14.674V62.54C90.415,70.481-3.978,171.995,0.129,294.471    c3.895,116.16,101.019,213.285,217.18,217.18c122.476,4.107,223.989-90.286,231.931-209.87H374.674z M108.326,170.107    c5.858-5.858,15.355-5.858,21.213,0c5.859,5.858,5.859,15.355,0,21.213c-5.858,5.858-15.355,5.858-21.213,0    C102.468,185.462,102.469,175.965,108.326,170.107z M74.999,301.78c-8.284,0-15-6.716-15-15c0-8.286,6.716-15,15-15    s15,6.714,15,15C89.999,295.064,83.283,301.78,74.999,301.78z M129.539,403.453c-5.858,5.858-15.355,5.858-21.213,0    c-5.858-5.859-5.858-15.357,0-21.215c5.858-5.858,15.355-5.858,21.213,0C135.398,388.096,135.398,397.594,129.539,403.453z     M224.999,451.78c-8.284,0-15-6.716-15-15c0-8.286,6.716-15,15-15s15,6.714,15,15C239.999,445.064,233.283,451.78,224.999,451.78z     M245.576,389.81c-73.841,14.112-137.719-49.766-123.609-123.607c7.842-41.039,41.417-74.612,82.454-82.454    c73.841-14.11,137.719,49.768,123.609,123.607C320.188,348.395,286.614,381.967,245.576,389.81z M341.672,403.453    c-5.858,5.858-15.355,5.858-21.213,0c-5.859-5.859-5.859-15.357,0-21.215c5.858-5.858,15.355-5.858,21.213,0    C347.53,388.096,347.53,397.594,341.672,403.453z" fill="#ffffff" data-original="#000000" style="" class=""/>
	</g>
</g>
<g xmlns="http://www.w3.org/2000/svg">
</g>
<g xmlns="http://www.w3.org/2000/svg">
</g>
<g xmlns="http://www.w3.org/2000/svg">
</g>
<g xmlns="http://www.w3.org/2000/svg">
</g>
<g xmlns="http://www.w3.org/2000/svg">
</g>
<g xmlns="http://www.w3.org/2000/svg">
</g>
<g xmlns="http://www.w3.org/2000/svg">
</g>
<g xmlns="http://www.w3.org/2000/svg">
</g>
<g xmlns="http://www.w3.org/2000/svg">
</g>
<g xmlns="http://www.w3.org/2000/svg">
</g>
<g xmlns="http://www.w3.org/2000/svg">
</g>
<g xmlns="http://www.w3.org/2000/svg">
</g>
<g xmlns="http://www.w3.org/2000/svg">
</g>
<g xmlns="http://www.w3.org/2000/svg">
</g>
<g xmlns="http://www.w3.org/2000/svg">
</g>
</g></svg>
