<?xml version="1.0"?>
<svg xmlns="http://www.w3.org/2000/svg" xmlns:xlink="http://www.w3.org/1999/xlink" xmlns:svgjs="http://svgjs.com/svgjs" version="1.1" width="512" height="512" x="0" y="0" viewBox="0 0 448 448" style="enable-background:new 0 0 512 512" xml:space="preserve" class=""><g>
<g xmlns="http://www.w3.org/2000/svg">
	<g>
		<path d="M224,408c-1.578,0-3.125-0.469-4.438-1.344l-24-16l8.875-13.313L226.422,392h35.458c-3.854-12.306-7.223-25.733-10.074-40    H208c-1.578,0-3.125-0.469-4.438-1.344l-24-16l8.875-13.313L210.422,336h38.469c-2.158-12.898-3.93-26.299-5.306-40H200    c-1.578,0-3.125-0.469-4.438-1.344l-24-16l8.875-13.313L202.422,280h39.734c-1.019-13.221-1.667-26.616-1.96-40H200    c-1.578,0-3.125-0.469-4.438-1.344l-24-16l8.875-13.313L202.422,224H240c0-13.305,0.385-26.7,1.112-40H200    c-1.578,0-3.125-0.469-4.438-1.344l-24-16l8.875-13.313L202.422,168h39.734c1.048-13.596,2.474-27,4.276-40H208    c-1.578,0-3.125-0.469-4.438-1.344l-24-16l8.875-13.313L210.422,112h38.469c2.35-14.046,5.156-27.473,8.416-40H216    c-1.578,0-3.125-0.469-4.438-1.344l-24-16l8.875-13.313L218.422,56h43.458c7.458-23.82,16.761-43.339,27.854-56H152    c-14.568,0-34.947,20.53-52.426,56h34.004l21.984-14.656l8.875,13.313l-24,16C139.125,71.531,137.578,72,136,72H92.342    c-5.024,12.072-9.66,25.453-13.668,40h38.905l21.984-14.656l8.875,13.313l-24,16C123.125,127.531,121.578,128,120,128H74.652    c-2.899,12.622-5.315,25.975-7.105,40h34.031l21.984-14.656l8.875,13.313l-24,16C107.125,183.531,105.578,184,104,184H65.817    C64.659,196.872,64,210.205,64,224h37.578l21.984-14.656l8.875,13.313l-24,16C107.125,239.531,105.578,240,104,240H64.317    c0.491,13.837,1.596,27.193,3.23,40h42.031l21.984-14.656l8.875,13.313l-24,16C115.125,295.531,113.578,296,112,296H69.898    c2.652,15.898,6.092,30.826,10.102,44.663V336h45.578l21.984-14.656l8.875,13.313l-24,16C131.125,351.531,129.578,352,128,352    H83.467c4.839,14.842,10.312,28.242,16.106,40h42.004l21.984-14.656l8.875,13.313l-24,16C147.125,407.531,145.578,408,144,408    h-35.74c15.245,25.543,31.531,40,43.74,40h137.734c-8.494-9.693-15.932-23.42-22.305-40H224z" fill="#f8f8f8" data-original="#000000" style="" class=""/>
	</g>
</g>
<g xmlns="http://www.w3.org/2000/svg">
	<g>
		<ellipse cx="320" cy="224" rx="24" ry="104" fill="#f8f8f8" data-original="#000000" style="" class=""/>
	</g>
</g>
<g xmlns="http://www.w3.org/2000/svg">
	<g>
		<path d="M320,0c-30.273,0-64,91.992-64,224s33.727,224,64,224s64-91.992,64-224S350.273,0,320,0z M320,344    c-27.484,0-40-62.203-40-120s12.516-120,40-120s40,62.203,40,120S347.484,344,320,344z" fill="#f8f8f8" data-original="#000000" style="" class=""/>
	</g>
</g>
<g xmlns="http://www.w3.org/2000/svg">
</g>
<g xmlns="http://www.w3.org/2000/svg">
</g>
<g xmlns="http://www.w3.org/2000/svg">
</g>
<g xmlns="http://www.w3.org/2000/svg">
</g>
<g xmlns="http://www.w3.org/2000/svg">
</g>
<g xmlns="http://www.w3.org/2000/svg">
</g>
<g xmlns="http://www.w3.org/2000/svg">
</g>
<g xmlns="http://www.w3.org/2000/svg">
</g>
<g xmlns="http://www.w3.org/2000/svg">
</g>
<g xmlns="http://www.w3.org/2000/svg">
</g>
<g xmlns="http://www.w3.org/2000/svg">
</g>
<g xmlns="http://www.w3.org/2000/svg">
</g>
<g xmlns="http://www.w3.org/2000/svg">
</g>
<g xmlns="http://www.w3.org/2000/svg">
</g>
<g xmlns="http://www.w3.org/2000/svg">
</g>
</g></svg>
