<?xml version="1.0"?>
<svg xmlns="http://www.w3.org/2000/svg" xmlns:xlink="http://www.w3.org/1999/xlink" xmlns:svgjs="http://svgjs.com/svgjs" version="1.1" width="512" height="512" x="0" y="0" viewBox="0 0 512 512.001" style="enable-background:new 0 0 512 512" xml:space="preserve" class=""><g><path xmlns="http://www.w3.org/2000/svg" d="m394.324219 116.324219-31.511719-85.125c-6.605469-18.671875-24.171875-31.199219-43.777344-31.199219h-168.070312c-19.640625 0-37.230469 12.570312-43.8125 31.296875l-30.660156 85.199219c-7.449219 3.105468-14.296876 7.757812-20.15625 13.820312-11.179688 11.566406-17.335938 26.722656-17.335938 42.683594v105c0 22.054688 17.945312 40 40 40 20.363281 0 37.207031-15.296875 39.675781-35h233.648438c2.46875 19.703125 19.3125 35 39.675781 35 20.933594 0 40-16.683594 40-35v-111c0-25.195312-15.617188-46.800781-37.675781-55.675781zm-43.324219 60.675781v40h41v6c0 11.027344-8.972656 20-20 20h-273c-11.027344 0-20-8.972656-20-20v-6h42v-40h-42v-4c0-11.382812 9.160156-21 20-21h273c11.027344 0 20 8.972656 20 20v5zm-206.117188-132.425781c.941407-2.691407 3.441407-4.574219 6.082032-4.574219h168.070312c2.640625 0 5.140625 1.882812 6.082032 4.574219l24.957031 67.425781h-229.453125l24.199218-67.242188zm-32.691406 312.425781c5.1875 8.140625 7.808594 16.644531 7.808594 25.488281 0 27.933594-25.730469 46.167969-48.4375 62.257813-9.570312 6.78125-18.609375 13.1875-24.90625 19.496094-.0625.0625-.125.125-.183594.1875-4.996094 5.058593-5.054687 13.1875-.191406 18.375 4.398438 4.683593 11.507812 10.730468 22.554688 16.558593 10.800781 5.695313 21.808593 10.042969 28.972656 12.636719h-80.058594c-11.796875-11.695312-17.75-24.277344-17.75-37.632812 0-27.933594 25.734375-46.167969 48.4375-62.257813 9.570312-6.78125 18.609375-13.1875 24.90625-19.496094.066406-.0625.125-.128906.1875-.191406 5-5.066406 5.042969-13.1875.171875-18.382813-4.457031-4.753906-11.703125-10.917968-23.003906-16.855468-.121094-.0625-.238281-.121094-.359375-.183594zm312 0c5.1875 8.140625 7.808594 16.644531 7.808594 25.488281 0 27.933594-25.730469 46.167969-48.4375 62.257813-9.570312 6.78125-18.609375 13.1875-24.90625 19.496094-.0625.0625-.125.125-.183594.1875-4.996094 5.058593-5.054687 13.1875-.191406 18.375 4.398438 4.683593 11.507812 10.730468 22.554688 16.558593 10.800781 5.695313 21.808593 10.042969 28.972656 12.636719h-80.0625c-11.792969-11.695312-17.746094-24.277344-17.746094-37.632812 0-27.933594 25.734375-46.167969 48.4375-62.257813 9.570312-6.78125 18.609375-13.1875 24.90625-19.496094.0625-.0625.125-.125.1875-.1875 5-5.066406 5.042969-13.195312.171875-18.386719-4.460937-4.757812-11.707031-10.917968-23.003906-16.855468-.117188-.0625-.238281-.121094-.359375-.183594zm0 0" fill="#f8f8f8" data-original="#000000" style="" class=""/></g></svg>
